<svg width="455" height="408" viewBox="0 0 455 408" fill="none" xmlns="http://www.w3.org/2000/svg">
<rect width="159.996" height="301.591" rx="24" transform="matrix(0.991922 -0.126849 0.126982 0.991905 19 108.85)" fill="#6E479E"/>
<rect width="159.999" height="301.587" rx="24" transform="matrix(0.996677 0.0814503 -0.081695 0.996657 270 0)" fill="#6E479E"/>
<path d="M231.436 164.773C230.296 164.773 230.348 170.122 227.403 173.963C224.848 177.296 221 178.178 221 179.584C221 180.876 224.842 181.104 227.599 184.481C229.996 187.417 230.594 192.735 231.675 192.735C232.754 192.735 232.46 187.694 235.26 184.159C238.115 180.555 242 180.477 242 179.273C242 178.045 237.435 177.036 235.059 173.698C232.559 170.184 232.695 164.773 231.436 164.773Z" fill="#F6FCF4"/>
<path d="M210.473 200.724C209.983 200.724 210.006 203.016 208.744 204.662C207.649 206.091 206 206.469 206 207.072C206 207.624 207.646 207.722 208.828 209.17C209.856 210.428 210.112 212.707 210.576 212.707C211.037 212.707 210.912 210.547 212.111 209.032C213.336 207.488 215 207.454 215 206.938C215 206.412 213.043 205.979 212.026 204.549C210.954 203.042 211.013 200.724 210.473 200.724Z" fill="#F6FCF4"/>
<path d="M22.4356 335.538C21.2952 335.538 21.3475 340.888 18.4029 344.728C15.8477 348.061 12 348.942 12 350.35C12 351.641 15.8411 351.869 18.5988 355.246C20.9961 358.181 21.5945 363.499 22.6751 363.499C23.7549 363.499 23.4604 358.46 26.2606 354.925C29.1153 351.321 33 351.242 33 350.038C33 348.81 28.4348 347.801 26.0599 344.464C23.5598 340.948 23.6948 335.538 22.4356 335.538Z" fill="#F6FCF4"/>
<path d="M4.47231 374.484C3.98391 374.484 4.006 376.777 2.74407 378.423C1.64888 379.851 0 380.228 0 380.832C0 381.385 1.64621 381.483 2.82799 382.93C3.85552 384.188 4.112 386.468 4.57485 386.468C5.03809 386.468 4.91197 384.308 6.11198 382.792C7.33527 381.248 9 381.214 9 380.698C9 380.172 7.04341 379.739 6.02569 378.309C4.95408 376.803 5.01213 374.484 4.47231 374.484Z" fill="#F6FCF4"/>
<path d="M444.435 274.622C443.296 274.622 443.347 279.971 440.404 283.811C437.847 287.144 434 288.025 434 289.433C434 290.723 437.841 290.952 440.599 294.329C442.996 297.264 443.594 302.583 444.676 302.583C445.755 302.583 445.46 297.542 448.261 294.007C451.116 290.403 455 290.326 455 289.121C455 287.894 450.435 286.884 448.061 283.546C445.56 280.031 445.694 274.622 444.435 274.622Z" fill="#F6FCF4"/>
<path d="M426.473 249.656C425.984 249.656 426.006 251.949 424.745 253.594C423.649 255.023 422 255.401 422 256.003C422 256.557 423.647 256.656 424.828 258.103C425.856 259.36 426.112 261.64 426.576 261.64C427.037 261.64 426.912 259.479 428.111 257.964C429.336 256.419 431 256.386 431 255.871C431 255.345 429.044 254.912 428.026 253.481C426.954 251.974 427.013 249.656 426.473 249.656Z" fill="#F6FCF4"/>
<path d="M375 337.535H348.668C345.872 373.618 323.913 381.138 317.524 382.568V372.698L295 390.068L317.524 407.439V396.999C368.514 392.978 375 337.535 375 337.535Z" fill="url(#paint0_linear_65_175)"/>
<path d="M85 72.8996H111.331C114.127 36.8165 136.087 29.2969 142.475 27.8654V37.737L165 20.3664L142.475 2.99588V13.4353C91.4848 17.4554 85 72.8996 85 72.8996Z" fill="url(#paint1_linear_65_175)"/>
<path d="M390.216 296.591C389.955 296.591 389.693 296.58 389.429 296.557L262.221 285.572C257.27 285.144 253.606 280.801 254.034 275.873L255.652 257.308L262.349 180.391L307.782 153.395C316.83 162.095 329.255 167.832 342.933 169.203C344.743 169.384 346.543 169.473 348.324 169.473C375.302 169.473 398.419 149.111 401.178 121.81C401.962 114.061 401.035 106.438 398.703 99.3699L416.552 88.7633L400.051 278.269L399.169 288.405C398.762 293.072 394.833 296.591 390.216 296.591ZM307.9 212.65L307.365 218.801L361.652 223.489L362.187 217.339L307.9 212.65ZM309.446 194.902L308.911 201.053L392.359 208.259L392.895 202.108L309.446 194.902ZM267.725 118.657L271.147 79.3565C290.962 67.5352 341.917 37.328 373.272 19.5499L413.25 23.002C415.531 23.199 417.54 24.2276 419 25.762L360.136 61.9091C355.663 60.146 350.874 58.962 345.851 58.4581C344.04 58.2769 342.241 58.1878 340.46 58.1878C313.482 58.1878 290.365 78.5507 287.606 105.851C287.584 106.062 287.564 106.275 287.545 106.486L267.725 118.657ZM274.558 40.186L276.302 20.1687C276.707 15.5029 280.637 11.9835 285.253 11.9835C285.513 11.9835 285.776 11.9944 286.041 12.0172L323.802 15.2782L274.558 40.186Z" fill="url(#paint2_linear_65_175)"/>
<path d="M280.808 206.138C279.801 205.652 278.056 207.476 278.001 208.107C277.945 208.736 281.127 212.997 281.364 213.293C281.601 213.589 284.507 213.872 284.83 213.589C285.15 213.305 286.664 206.223 299.967 192.823C300.672 192.11 289.978 195.534 283.134 209.649C283.134 209.649 281.559 206.499 280.808 206.138Z" fill="#6FCEC3"/>
<path d="M391.464 208.713L308 201.709L308.535 195.73L392 202.734L391.464 208.713Z" fill="url(#paint3_linear_65_175)"/>
<path d="M361.462 223.692L307 218.94L307.537 212.707L362 217.459L361.462 223.692Z" fill="url(#paint4_linear_65_175)"/>
<path d="M293.25 114.284C290.296 143.553 313.901 166.548 343.245 169.494C372.59 172.44 398.772 151.102 401.726 121.833C404.68 92.5637 383.423 65.0906 354.079 62.1447C324.734 59.1977 296.204 85.0162 293.25 114.284Z" fill="#B5571F"/>
<path d="M288.27 105.547C285.339 134.629 306.57 160.577 335.692 163.504C364.813 166.431 390.798 145.23 393.729 116.148C396.662 87.0665 375.429 61.1174 346.307 58.1903C317.185 55.2632 291.202 76.4651 288.27 105.547Z" fill="#F79722"/>
<path d="M302 97.8652C307.621 81.3656 323.338 69.9037 341.237 69.9037C342.625 69.9037 344.031 69.9733 345.442 70.1142C345.965 70.1659 346.484 70.2284 347 70.2989L315.306 89.7137C314.849 89.2947 314.211 89.0316 313.563 89.0316C312.882 89.0316 312.193 89.3215 311.691 90.0235C310.972 91.0312 310.309 92.0748 309.702 93.1471L302 97.8652Z" fill="#F9D632"/>
<path d="M334.908 163.774C334.901 163.774 334.894 163.773 334.887 163.772C334.894 163.773 334.901 163.774 334.908 163.774ZM334.86 163.769C334.851 163.768 334.844 163.768 334.835 163.767C334.844 163.768 334.851 163.768 334.86 163.769ZM334.809 163.764C334.796 163.763 334.781 163.761 334.767 163.76C334.781 163.761 334.796 163.763 334.809 163.764ZM334.743 163.757C334.734 163.756 334.723 163.755 334.712 163.754C334.723 163.755 334.733 163.756 334.743 163.757ZM334.696 163.752C334.685 163.751 334.675 163.75 334.663 163.749C334.674 163.75 334.686 163.751 334.696 163.752ZM334.651 163.747C334.612 163.743 334.574 163.74 334.536 163.736C334.573 163.74 334.613 163.743 334.651 163.747ZM334.531 163.735C334.519 163.734 334.506 163.732 334.493 163.731C334.505 163.732 334.519 163.734 334.531 163.735ZM334.486 163.73C333.882 163.663 333.28 163.586 332.682 163.498C333.28 163.586 333.881 163.663 334.486 163.73ZM332.677 163.498C332.624 163.49 332.572 163.482 332.519 163.474C332.572 163.482 332.623 163.49 332.677 163.498ZM332.508 163.473C332.498 163.471 332.485 163.469 332.474 163.468C332.485 163.469 332.498 163.471 332.508 163.473ZM332.462 163.466C332.426 163.46 332.393 163.455 332.358 163.45C332.392 163.455 332.426 163.46 332.462 163.466ZM332.339 163.447C332.33 163.446 332.321 163.444 332.313 163.443C332.321 163.444 332.331 163.446 332.339 163.447ZM332.287 163.439C332.28 163.438 332.274 163.437 332.267 163.436C332.274 163.437 332.28 163.438 332.287 163.439ZM332.219 163.429C332.217 163.428 332.215 163.428 332.213 163.428C332.215 163.428 332.218 163.428 332.219 163.429ZM332.169 163.421C332.165 163.42 332.16 163.419 332.157 163.419C332.161 163.419 332.165 163.42 332.169 163.421ZM332.116 163.412C332.112 163.412 332.109 163.411 332.107 163.411C332.109 163.411 332.112 163.412 332.116 163.412ZM332.002 163.394H332H332.002ZM392.737 115.978C392.738 115.973 392.738 115.965 392.739 115.96C392.738 115.966 392.738 115.972 392.737 115.978ZM392.742 115.925C392.743 115.918 392.744 115.912 392.744 115.904C392.744 115.912 392.743 115.918 392.742 115.925ZM392.749 115.857C392.75 115.848 392.75 115.842 392.751 115.833C392.751 115.84 392.75 115.849 392.749 115.857ZM392.753 115.807C392.754 115.797 392.754 115.791 392.755 115.78C392.754 115.79 392.754 115.798 392.753 115.807ZM392.758 115.755C392.759 115.741 392.761 115.726 392.762 115.712C392.761 115.727 392.759 115.74 392.758 115.755ZM392.765 115.684C392.766 115.674 392.766 115.664 392.767 115.653C392.766 115.664 392.766 115.673 392.765 115.684ZM392.769 115.636C392.77 115.624 392.771 115.615 392.772 115.602C392.771 115.614 392.77 115.624 392.769 115.636ZM392.773 115.595C392.775 115.57 392.778 115.544 392.78 115.519C392.778 115.545 392.775 115.569 392.773 115.595ZM392.78 115.513C392.782 115.499 392.783 115.488 392.784 115.473C392.783 115.487 392.782 115.5 392.78 115.513ZM392.784 115.469C392.788 115.426 392.792 115.387 392.796 115.344C392.792 115.386 392.788 115.427 392.784 115.469ZM392.796 115.343C392.905 114.085 392.97 112.835 392.992 111.591C392.97 112.833 392.904 114.087 392.796 115.343ZM392.992 111.587C392.993 111.547 392.994 111.509 392.994 111.468C392.994 111.508 392.993 111.547 392.992 111.587ZM392.994 111.459C392.995 111.446 392.995 111.434 392.995 111.422C392.995 111.434 392.995 111.446 392.994 111.459ZM392.995 111.415C392.995 111.392 392.996 111.371 392.996 111.348C392.996 111.37 392.995 111.393 392.995 111.415ZM392.996 111.332C392.996 111.323 392.996 111.31 392.997 111.301C392.996 111.312 392.996 111.321 392.996 111.332ZM392.997 111.278C392.997 111.269 392.997 111.262 392.997 111.253C392.997 111.262 392.997 111.269 392.997 111.278ZM392.998 111.206C392.998 111.199 392.998 111.194 392.998 111.186C392.998 111.194 392.998 111.199 392.998 111.206ZM392.998 111.154C392.998 111.146 392.998 111.142 392.998 111.135C392.998 111.141 392.998 111.147 392.998 111.154ZM392.999 111.094C392.999 111.09 392.999 111.086 392.999 111.083C392.999 111.087 392.999 111.089 392.999 111.094ZM392.999 111.031C392.999 111.027 392.999 111.022 392.999 111.019C392.999 111.022 392.999 111.027 392.999 111.031ZM393 110.974C393 110.97 393 110.968 393 110.964C393 110.968 393 110.97 393 110.974ZM393 110.853C393 110.852 393 110.849 393 110.847C393 110.85 393 110.851 393 110.853Z" fill="#B74E1E"/>
<path d="M340.226 163.774C338.459 163.774 336.668 163.686 334.872 163.506C334.855 163.505 334.839 163.503 334.824 163.501C334.817 163.501 334.81 163.5 334.803 163.499C334.794 163.498 334.784 163.497 334.775 163.496C334.766 163.495 334.759 163.495 334.75 163.494C334.742 163.493 334.734 163.493 334.725 163.492C334.711 163.491 334.696 163.489 334.682 163.488C334.674 163.487 334.667 163.486 334.659 163.485C334.648 163.484 334.638 163.483 334.627 163.482C334.622 163.481 334.616 163.481 334.611 163.48C334.601 163.479 334.589 163.478 334.579 163.477C334.575 163.476 334.57 163.476 334.566 163.475C334.528 163.471 334.488 163.467 334.451 163.463C334.45 163.462 334.447 163.462 334.446 163.462C334.433 163.461 334.42 163.459 334.408 163.458C334.405 163.458 334.403 163.457 334.401 163.457C333.795 163.391 333.193 163.316 332.595 163.229C332.592 163.229 332.592 163.229 332.59 163.229C332.535 163.221 332.484 163.214 332.431 163.206C332.427 163.206 332.424 163.205 332.42 163.205C332.41 163.203 332.397 163.201 332.386 163.2C332.382 163.199 332.377 163.198 332.373 163.198C332.338 163.192 332.304 163.187 332.27 163.182C332.264 163.181 332.257 163.18 332.251 163.179C332.243 163.178 332.233 163.176 332.224 163.175C332.215 163.174 332.208 163.172 332.199 163.171C332.192 163.17 332.186 163.169 332.179 163.168C332.163 163.166 332.146 163.163 332.131 163.161C332.13 163.16 332.127 163.16 332.125 163.16C332.11 163.158 332.095 163.156 332.08 163.154C332.076 163.153 332.072 163.152 332.068 163.152C332.054 163.15 332.041 163.148 332.028 163.145C332.024 163.145 332.021 163.144 332.018 163.144C331.982 163.138 331.949 163.133 331.913 163.127H331.911C322.933 161.723 314.793 158.111 308 152.914L319.208 146.262C324.197 149.218 329.9 151.161 336.059 151.778C337.452 151.917 338.841 151.986 340.213 151.986C361.002 151.988 378.813 136.315 380.94 115.3C381.137 113.352 381.192 111.42 381.115 109.518L392.337 102.858C392.785 105.639 393.012 108.487 392.999 111.377C392.999 111.379 392.999 111.382 392.999 111.383C392.999 111.419 392.999 111.455 392.999 111.492C392.999 111.496 392.999 111.498 392.999 111.502C392.999 111.515 393 111.531 392.999 111.546C392.999 111.549 392.999 111.554 392.999 111.558C392.999 111.574 392.999 111.592 392.999 111.609C392.999 111.612 392.999 111.615 392.999 111.619C392.999 111.632 392.998 111.646 392.998 111.66C392.998 111.667 392.998 111.67 392.998 111.678C392.998 111.689 392.998 111.7 392.998 111.711C392.998 111.719 392.998 111.724 392.998 111.73C392.998 111.745 392.997 111.763 392.997 111.777C392.997 111.785 392.997 111.792 392.997 111.801C392.997 111.808 392.997 111.817 392.997 111.824C392.996 111.833 392.996 111.845 392.996 111.854C392.996 111.859 392.996 111.865 392.996 111.87C392.996 111.892 392.995 111.913 392.995 111.936C392.995 111.938 392.995 111.94 392.995 111.943C392.995 111.954 392.995 111.966 392.994 111.979C392.994 111.982 392.994 111.984 392.994 111.988C392.994 112.028 392.993 112.066 392.992 112.106C392.992 112.108 392.992 112.108 392.992 112.11C392.97 113.334 392.905 114.565 392.795 115.804C392.795 115.806 392.795 115.804 392.795 115.805C392.791 115.847 392.787 115.887 392.783 115.929C392.783 115.931 392.783 115.932 392.783 115.933C392.782 115.947 392.781 115.958 392.779 115.972C392.779 115.974 392.779 115.977 392.779 115.978C392.777 116.002 392.774 116.028 392.772 116.052C392.772 116.053 392.771 116.058 392.771 116.059C392.77 116.072 392.769 116.081 392.768 116.093C392.768 116.098 392.767 116.105 392.766 116.109C392.765 116.12 392.765 116.13 392.764 116.14C392.763 116.149 392.762 116.159 392.761 116.167C392.76 116.181 392.758 116.196 392.758 116.21C392.757 116.217 392.756 116.226 392.755 116.234C392.754 116.245 392.754 116.251 392.753 116.262C392.752 116.271 392.751 116.278 392.75 116.287C392.749 116.296 392.749 116.302 392.748 116.311C392.746 116.327 392.745 116.341 392.743 116.357C392.743 116.365 392.742 116.371 392.741 116.378C392.74 116.388 392.739 116.401 392.738 116.412C392.737 116.417 392.737 116.425 392.736 116.43C392.734 116.446 392.732 116.464 392.731 116.481C389.989 143.573 367.027 163.777 340.226 163.774Z" fill="#F68623"/>
<path d="M340.025 151.791C338.652 151.791 337.262 151.721 335.867 151.58C329.702 150.957 323.994 148.992 319 146.003L334.706 136.586L336.941 140.863L345.822 129.922L380.967 108.85C381.044 110.773 380.988 112.727 380.791 114.696C378.662 135.946 360.834 151.793 340.025 151.791Z" fill="#FABB29"/>
<path d="M337.212 141.805L335 137.511L346 130.82L337.212 141.805Z" fill="#F57E21"/>
<path d="M314.655 73.8982C313.203 73.8982 312.241 71.541 313.794 70.452C320.155 65.9892 327.616 63.4226 335.3 62.9174C335.346 62.9143 335.391 62.9133 335.435 62.9133C337.573 62.9133 337.513 66.3958 335.3 66.5407C328.223 67.0057 321.422 69.4807 315.577 73.5801C315.261 73.8026 314.947 73.8982 314.655 73.8982Z" fill="#F9AA20"/>
<path d="M348.033 66.9078C346.2 66.9078 343.62 65.8512 342.728 65.7888C340.438 65.6287 340.455 61.9147 342.594 61.9147C342.638 61.9147 342.683 61.9169 342.728 61.9201C344.878 62.0695 347.039 62.6511 349.018 63.5572C349.6 63.8238 349.886 64.2409 349.955 64.6988C350.216 66.4005 349.304 66.9078 348.033 66.9078Z" fill="#F9AA20"/>
<path d="M309 92.8721C309.65 91.8313 310.36 90.8184 311.129 89.8403C311.667 89.159 312.405 88.8776 313.134 88.8776C313.827 88.8776 314.511 89.1329 315 89.5396L309 92.8721Z" fill="#FAE750"/>
<path d="M271 78.8914L274.407 39.2121L323.591 13.9808L373 18.308C341.684 36.3169 290.791 66.9165 271 78.8914Z" fill="url(#paint5_linear_65_175)"/>
<path d="M262 179.752L267.372 117.955L287.177 105.772C285.629 123.178 292.712 139.404 304.935 150.189C305.725 151.061 306.547 151.909 307.399 152.729L262 179.752ZM398.251 98.6488C393.463 84.109 382.743 71.9079 368.718 65.7479C365.896 63.9473 362.884 62.4023 359.713 61.1497L418.533 24.9656C420.24 26.7623 421.197 29.2517 420.966 31.9125L416.087 88.0313L398.251 98.6488Z" fill="url(#paint6_linear_65_175)"/>
<path d="M307.455 152.79C306.607 151.97 305.787 151.124 305 150.253C305.909 151.057 306.849 151.833 307.815 152.575L307.455 152.79ZM392.367 102.132C389.955 87.0997 381.142 73.9487 368.567 65.9092C382.545 72.0621 393.228 84.249 398 98.7719L392.367 102.132Z" fill="#A96D2A"/>
<path d="M308.668 152.79C307.706 152.051 306.768 151.279 305.861 150.477C293.712 139.75 286.67 123.61 288.21 106.298L302.019 97.7974C301.044 100.673 300.377 103.702 300.059 106.85C299.112 116.244 301.429 125.216 306.089 132.642C301.89 133.4 297.626 133.867 293.349 134.058C296.94 141.389 302.193 147.813 308.672 152.788L308.668 152.79ZM393 102.559C390.665 88.0313 382.316 75.2727 370.36 67.2137C369.248 71.2373 368.037 75.2451 366.661 79.1838C361.034 74.6162 354.134 71.4886 346.476 70.431L360.311 61.9147C363.463 63.1606 366.457 64.6973 369.262 66.4883C381.804 74.494 390.595 87.5897 393 102.559Z" fill="#F9AB29"/>
<path d="M305.257 131.818C300.584 124.308 298.26 115.236 299.21 105.735C299.528 102.551 300.198 99.488 301.175 96.5804L308.806 91.8435C305.846 97.1436 304.24 103.17 304.121 109.262C304.093 110.705 305.193 111.427 306.307 111.427C307.421 111.427 308.549 110.705 308.577 109.262C308.705 102.674 310.844 96.3411 314.624 90.9723C315.309 89.9995 315.032 89.0246 314.358 88.3966L345.758 68.9051C353.437 69.9746 360.357 73.1375 366 77.7567C362.995 86.4339 359.207 94.7741 353.967 102.202L343.145 79.4024L322.169 107.389L341.121 99.6505L350.926 106.203C350.484 106.742 350.034 107.274 349.573 107.801L340.869 102.169L323.345 109.162L336.031 119.627C334.953 120.35 333.857 121.042 332.746 121.705L321.804 111.04L328.573 124.016C321.261 127.772 313.375 130.341 305.257 131.818ZM306.994 114.588C305.68 114.588 304.28 115.664 304.661 117.359C305 118.869 305.552 120.33 306.236 121.716C306.638 122.53 307.223 122.862 307.823 122.862C309.195 122.862 310.645 121.127 310.169 119.428C309.85 118.294 309.172 117.119 308.958 116.166C308.712 115.068 307.872 114.588 306.994 114.588Z" fill="#F9DF42"/>
<path d="M336.059 120.834L323 110.657L341.04 103.857L350 109.334C348.55 110.901 347.01 112.412 345.371 113.859C342.443 116.444 339.327 118.766 336.059 120.834Z" fill="#F8A023"/>
<path d="M328.804 124.828L322 111.846L333 122.515C331.624 123.331 330.226 124.101 328.804 124.828Z" fill="#F8A023"/>
<path d="M322 107.851L342.449 79.89L353 102.67C352.062 104.033 351.074 105.368 350.035 106.666L340.476 100.12L322 107.851Z" fill="#F8A023"/>
<path d="M308.377 152.79C301.874 147.797 296.603 141.35 293 133.992C297.292 133.801 301.57 133.332 305.785 132.572C309.239 138.075 313.974 142.731 319.622 146.091L308.377 152.79ZM381.74 109.088C381.255 97.0723 375.515 86.1839 366.569 78.921C367.949 74.9681 369.165 70.9459 370.281 66.9078C382.279 74.9958 390.657 87.8003 393 102.381L381.74 109.088Z" fill="#F89A26"/>
<path d="M318.846 146.798C313.194 143.451 308.456 138.813 305 133.332C313.128 131.871 321.024 129.332 328.345 125.619L334.599 137.455L318.846 146.798ZM345.749 130.844L357.604 116.397L338.152 128.749L332.524 123.334C333.637 122.679 334.733 121.995 335.813 121.281L338.673 123.611L356.534 114.166L349.372 109.59C349.833 109.069 350.284 108.543 350.727 108.01L357.97 112.788L353.771 104.055C359.018 96.7122 362.811 88.4676 365.82 79.8899C374.771 87.1246 380.514 97.9706 381 109.939L345.749 130.844Z" fill="#FCCA38"/>
<path d="M338.899 122.831L336 120.507C339.221 118.411 342.293 116.058 345.179 113.438C346.795 111.971 348.313 110.439 349.742 108.85L357 113.413L338.899 122.831Z" fill="#F79323"/>
<path d="M335.199 136.812L329 124.463C330.403 123.714 331.784 122.92 333.142 122.079L338.72 127.728L358 114.842L346.25 129.914L335.199 136.812Z" fill="#F79323"/>
<path d="M358 111.846L351 106.928C352.031 105.606 353.011 104.247 353.942 102.858L358 111.846Z" fill="#F79323"/>
<path d="M306.207 112.845C305.083 112.845 303.973 112.125 304.001 110.685C304.12 104.61 305.741 98.5997 308.728 93.3139L314.331 89.8762C315.012 90.5025 315.291 91.4748 314.6 92.4451C310.785 97.7995 308.626 104.115 308.497 110.685C308.469 112.125 307.331 112.845 306.207 112.845Z" fill="#F9ED62"/>
<path d="M308.417 123.829C307.782 123.829 307.162 123.509 306.736 122.723C306.011 121.385 305.427 119.974 305.067 118.516C304.664 116.88 306.147 115.84 307.538 115.84C308.469 115.84 309.358 116.304 309.619 117.364C309.846 118.284 310.565 119.419 310.902 120.514C311.406 122.154 309.87 123.829 308.417 123.829Z" fill="#F9ED62"/>
<path d="M387.477 313.219C396.072 313.972 403.624 307.59 404.367 299.013L427.653 30.2668C428.013 26.1124 426.735 22.0659 424.053 18.8728C421.373 15.6796 417.61 13.7233 413.458 13.3625L286.524 2.34705C282.373 1.99323 278.329 3.26675 275.137 5.94949C271.949 8.63226 269.993 12.3983 269.633 16.5537L246.346 285.299C245.603 293.877 251.972 301.459 260.542 302.203L387.477 313.219ZM388.836 314.567C388.349 314.567 387.859 314.545 387.366 314.502L260.43 303.487C251.153 302.682 244.261 294.472 245.064 285.188L268.351 16.4417C268.74 11.9444 270.856 7.86816 274.31 4.96341C277.764 2.05765 282.149 0.672211 286.635 1.06366L413.568 12.0801C418.063 12.4696 422.137 14.5875 425.039 18.0443C427.942 21.5 429.325 25.8805 428.936 30.3788L405.649 299.125C404.888 307.915 397.494 314.567 388.836 314.567Z" fill="#F5FBF1"/>
<path d="M69.9194 389.464C65.4736 389.464 61.6173 386.153 61.0454 381.625L35.9071 182.602L57.0407 194.035C55.1626 200.826 54.5627 208.058 55.4859 215.365C58.8678 242.141 81.6638 261.709 107.949 261.709C110.162 261.709 112.402 261.57 114.655 261.285C128.456 259.54 140.857 253.314 149.67 244.143L192.809 267.479L204.928 363.427C205.549 368.337 202.073 372.822 197.165 373.442L78.2533 388.481L71.054 389.392C70.6729 389.44 70.294 389.464 69.9194 389.464ZM153.973 301.69L100.154 308.497L100.929 314.624L154.748 307.817L153.973 301.69ZM180.651 280.353L97.9214 290.816L98.6953 296.944L181.425 286.48L180.651 280.353ZM184.995 205.614L168.064 196.189C164.533 169.587 141.82 150.188 115.645 150.188C113.433 150.188 111.191 150.327 108.939 150.612C103.575 151.29 98.5033 152.748 93.8181 154.859L31 119.891C32.394 118.287 34.3599 117.171 36.6334 116.883L46.1193 115.683L76.5253 111.838C108.431 128.205 159.824 155.818 180.089 166.78L184.995 205.614ZM175.178 127.895L126.008 105.579L162.745 100.933C163.126 100.885 163.505 100.861 163.879 100.861C163.931 100.861 163.982 100.862 164.033 100.863C168.415 100.938 172.188 104.224 172.754 108.7L175.178 127.895Z" fill="url(#paint7_linear_65_175)"/>
<path d="M72.1715 307.912C71.1548 307.658 69.9281 309.708 70.0033 310.308C70.0792 310.907 73.831 314.258 74.1069 314.487C74.3827 314.718 77.0894 314.406 77.326 314.078C77.5626 313.751 77.528 306.833 86.98 291.677C87.482 290.872 78.4138 296.189 74.9928 310.732C74.9928 310.732 72.9271 308.101 72.1715 307.912Z" fill="#6FCEC3"/>
<path d="M99.7785 296.591L99 290.321L182.221 279.615L183 285.884L99.7785 296.591Z" fill="url(#paint8_linear_65_175)"/>
<path d="M100.781 314.567L100 308.417L154.219 301.585L155 307.734L100.781 314.567Z" fill="url(#paint9_linear_65_175)"/>
<path d="M164.609 204.743C168.305 233.934 145.309 257.525 116.067 261.213C86.8259 264.903 60.1257 244.23 56.4299 215.039C52.734 185.849 73.2711 157.839 102.512 154.15C131.753 150.461 160.913 175.552 164.609 204.743Z" fill="#B5571F"/>
<path d="M168.576 197.083C172.246 226.081 151.682 252.558 122.645 256.223C93.6085 259.888 67.094 239.353 63.4239 210.355C59.7542 181.358 80.3174 154.881 109.354 151.216C138.392 147.551 164.906 168.086 168.576 197.083Z" fill="#F79722"/>
<path d="M155 187.741L146.736 183.201C144.787 180.097 142.415 177.252 139.681 174.777C139.224 174.365 138.712 174.19 138.213 174.19C136.653 174.19 135.227 175.894 136.058 177.335L109 162.473C109.793 162.327 110.591 162.204 111.4 162.103C113.154 161.884 114.898 161.777 116.62 161.777C133.725 161.777 148.931 172.279 155 187.741Z" fill="#F9D632"/>
<path d="M116.535 256.647C116.533 256.647 116.53 256.647 116.528 256.647C116.53 256.647 116.533 256.647 116.535 256.647ZM116.536 256.647C118.776 256.647 121.045 256.509 123.326 256.227C121.043 256.509 118.778 256.647 116.536 256.647ZM123.374 256.221C123.379 256.22 123.387 256.22 123.392 256.219C123.387 256.22 123.379 256.22 123.374 256.221ZM123.422 256.215C123.428 256.214 123.436 256.213 123.441 256.213C123.436 256.213 123.428 256.214 123.422 256.215ZM123.472 256.209C123.477 256.208 123.483 256.207 123.489 256.206C123.483 256.207 123.477 256.208 123.472 256.209ZM123.52 256.202C123.525 256.202 123.533 256.201 123.538 256.2C123.532 256.201 123.526 256.202 123.52 256.202ZM123.585 256.194C123.586 256.194 123.587 256.194 123.588 256.193C123.587 256.194 123.586 256.194 123.585 256.194ZM123.632 256.189C123.637 256.188 123.642 256.187 123.647 256.187C123.643 256.187 123.636 256.188 123.632 256.189ZM123.682 256.182C123.687 256.181 123.692 256.181 123.697 256.18C123.692 256.181 123.687 256.181 123.682 256.182ZM123.728 256.176C123.733 256.175 123.741 256.174 123.747 256.173C123.74 256.174 123.735 256.175 123.728 256.176ZM123.782 256.169C123.785 256.168 123.791 256.167 123.795 256.167C123.791 256.168 123.786 256.168 123.782 256.169ZM123.892 256.154C123.896 256.153 123.898 256.153 123.901 256.153C123.898 256.153 123.896 256.153 123.892 256.154ZM123.941 256.147C123.946 256.146 123.948 256.146 123.953 256.145C123.949 256.146 123.945 256.147 123.941 256.147ZM123.994 256.141C123.996 256.141 123.998 256.14 124 256.14C123.998 256.14 123.996 256.14 123.994 256.141ZM63.4804 211.322C63.4764 211.294 63.4729 211.269 63.469 211.241C63.4729 211.269 63.4764 211.294 63.4804 211.322ZM63.4267 210.929C63.424 210.91 63.4217 210.89 63.4189 210.872C63.4217 210.89 63.424 210.91 63.4267 210.929ZM63.395 210.685C63.3946 210.683 63.3942 210.679 63.3938 210.676C63.3942 210.68 63.3946 210.683 63.395 210.685ZM63.3856 210.611C63.3848 210.606 63.3841 210.6 63.3837 210.596C63.3841 210.599 63.3848 210.608 63.3856 210.611ZM63.3759 210.533C63.375 210.528 63.3747 210.524 63.3734 210.517C63.3742 210.522 63.375 210.529 63.3759 210.533ZM63.366 210.456C63.3652 210.451 63.3644 210.442 63.3636 210.437C63.3644 210.444 63.3652 210.449 63.366 210.456ZM63.3566 210.38C63.3558 210.372 63.3551 210.367 63.3543 210.359C63.3551 210.366 63.3558 210.373 63.3566 210.38ZM63.348 210.308C63.3472 210.3 63.3465 210.293 63.3453 210.285C63.3461 210.292 63.3472 210.301 63.348 210.308ZM63.339 210.233C63.3383 210.226 63.3375 210.219 63.3367 210.211C63.3375 210.22 63.3383 210.225 63.339 210.233ZM63.3301 210.155C63.3288 210.147 63.328 210.139 63.3268 210.131C63.328 210.14 63.3288 210.146 63.3301 210.155ZM63.321 210.078C63.3198 210.069 63.3186 210.06 63.3175 210.05C63.3186 210.059 63.3198 210.07 63.321 210.078ZM63.3116 209.999C63.3104 209.989 63.3096 209.98 63.3085 209.971C63.3096 209.979 63.3108 209.99 63.3116 209.999ZM63.3042 209.933C63.3026 209.919 63.301 209.905 63.2995 209.89C63.301 209.906 63.3026 209.918 63.3042 209.933ZM63.2956 209.856C63.294 209.843 63.2925 209.827 63.2913 209.815C63.2925 209.828 63.294 209.842 63.2956 209.856ZM63.287 209.778C63.2854 209.766 63.2842 209.752 63.2826 209.739C63.2842 209.752 63.2858 209.766 63.287 209.778ZM63.2783 209.7C63.2771 209.688 63.2759 209.676 63.2748 209.666C63.2759 209.676 63.2771 209.689 63.2783 209.7ZM63.2697 209.62C63.2685 209.609 63.2674 209.596 63.2662 209.585C63.2674 209.598 63.2685 209.607 63.2697 209.62ZM63.2627 209.553C63.2611 209.537 63.2595 209.521 63.2576 209.506C63.2595 209.521 63.2611 209.537 63.2627 209.553ZM63.2552 209.48C63.2533 209.461 63.2509 209.441 63.249 209.422C63.2509 209.441 63.2529 209.461 63.2552 209.48ZM63.247 209.402C63.2451 209.383 63.2427 209.363 63.2411 209.343C63.2427 209.363 63.2451 209.383 63.247 209.402ZM63.2387 209.321C63.2368 209.304 63.2352 209.289 63.2337 209.271C63.2352 209.287 63.2372 209.306 63.2387 209.321ZM63.2305 209.241C63.2294 209.228 63.2282 209.217 63.227 209.204C63.2282 209.217 63.2294 209.229 63.2305 209.241ZM63.2247 209.179C63.2227 209.16 63.2208 209.141 63.2188 209.122C63.2208 209.141 63.2227 209.16 63.2247 209.179ZM63.2173 209.104C63.2153 209.083 63.2133 209.063 63.2114 209.042C63.2133 209.064 63.2149 209.083 63.2173 209.104ZM63.2094 209.022C63.2075 209.002 63.2055 208.982 63.2036 208.962C63.2055 208.982 63.2075 209.001 63.2094 209.022ZM63.2016 208.942C63.1997 208.921 63.1976 208.898 63.1957 208.877C63.1976 208.9 63.1997 208.919 63.2016 208.942ZM63.1945 208.862C63.1906 208.821 63.1867 208.781 63.1832 208.74C63.1867 208.78 63.1906 208.822 63.1945 208.862ZM63.1828 208.736C63.1804 208.71 63.1781 208.685 63.1761 208.66C63.1781 208.684 63.1804 208.711 63.1828 208.736ZM63.175 208.648C63.1726 208.623 63.1711 208.603 63.1687 208.578C63.1711 208.601 63.173 208.625 63.175 208.648ZM63.1679 208.565C63.166 208.543 63.1636 208.518 63.1621 208.496C63.1636 208.519 63.166 208.543 63.1679 208.565ZM63.1609 208.484C63.1574 208.445 63.1538 208.402 63.1506 208.362C63.1538 208.403 63.1574 208.444 63.1609 208.484ZM63.1503 208.36C63.1483 208.333 63.1464 208.309 63.144 208.282C63.146 208.308 63.1483 208.334 63.1503 208.36ZM63.1428 208.267C63.1409 208.246 63.1393 208.223 63.1374 208.201C63.1393 208.223 63.1409 208.245 63.1428 208.267ZM63.1362 208.186C63.1346 208.164 63.1327 208.14 63.1311 208.117C63.1327 208.141 63.1346 208.163 63.1362 208.186ZM63.1299 208.106C63.1284 208.083 63.1264 208.057 63.1245 208.034C63.1264 208.058 63.1284 208.082 63.1299 208.106ZM63.1237 208.025C63.1186 207.956 63.1135 207.889 63.1088 207.821C63.1135 207.889 63.1186 207.956 63.1237 208.025ZM63.108 207.811C63.1064 207.788 63.1045 207.764 63.1029 207.74C63.1048 207.764 63.1064 207.787 63.108 207.811ZM63.1021 207.727C63.1005 207.705 63.099 207.684 63.0974 207.662C63.099 207.685 63.1005 207.704 63.1021 207.727ZM63.0963 207.645C63.0947 207.623 63.0931 207.6 63.092 207.578C63.0931 207.6 63.0947 207.622 63.0963 207.645ZM63.0908 207.565C63.088 207.524 63.0857 207.486 63.083 207.445C63.0857 207.486 63.088 207.523 63.0908 207.565ZM63.0822 207.43C63.0806 207.409 63.0791 207.386 63.0779 207.365C63.0795 207.388 63.0806 207.407 63.0822 207.43ZM63.0767 207.346C63.0755 207.326 63.0744 207.307 63.0728 207.287C63.0744 207.307 63.0755 207.325 63.0767 207.346ZM63.0716 207.264C63.0705 207.244 63.0693 207.226 63.0681 207.207C63.0693 207.226 63.0705 207.244 63.0716 207.264ZM63.067 207.185C63.0658 207.167 63.0645 207.148 63.0637 207.132C63.0645 207.148 63.0658 207.167 63.067 207.185ZM63.0622 207.103C63.0614 207.091 63.0606 207.081 63.0598 207.069C63.0606 207.081 63.0614 207.091 63.0622 207.103ZM63.0575 207.023C63.0567 207.012 63.0559 207 63.0555 206.99C63.0563 207.001 63.0567 207.011 63.0575 207.023ZM63.054 206.958C63.0528 206.942 63.052 206.926 63.0512 206.91C63.052 206.926 63.0528 206.942 63.054 206.958ZM63.0497 206.883C63.0489 206.867 63.0477 206.849 63.0469 206.834C63.0481 206.851 63.0489 206.865 63.0497 206.883ZM63.0454 206.802C63.045 206.789 63.0438 206.773 63.043 206.76C63.0438 206.774 63.0446 206.788 63.0454 206.802ZM63.0415 206.725C63.0411 206.714 63.0403 206.703 63.0399 206.691C63.0403 206.704 63.0407 206.713 63.0415 206.725ZM63.0376 206.643C63.0368 206.635 63.0364 206.625 63.036 206.615C63.0364 206.624 63.0372 206.635 63.0376 206.643ZM63.0337 206.564C63.0333 206.556 63.0329 206.546 63.0325 206.538C63.0329 206.546 63.0333 206.555 63.0337 206.564ZM63.0297 206.484C63.0294 206.477 63.0294 206.473 63.029 206.465C63.0294 206.472 63.0294 206.478 63.0297 206.484ZM63.0266 206.414C63.0262 206.406 63.0258 206.399 63.0254 206.391C63.0258 206.398 63.0262 206.407 63.0266 206.414ZM63.0231 206.335C63.0231 206.332 63.0226 206.325 63.0222 206.32C63.0226 206.325 63.0231 206.331 63.0231 206.335ZM63.0199 206.259C63.0195 206.252 63.0195 206.247 63.0191 206.241C63.0195 206.246 63.0195 206.253 63.0199 206.259ZM63.0168 206.181C63.0164 206.176 63.0164 206.17 63.016 206.165C63.0164 206.17 63.0164 206.175 63.0168 206.181ZM63.0136 206.102C63.0132 206.097 63.0132 206.094 63.0132 206.089C63.0132 206.092 63.0132 206.098 63.0136 206.102ZM63.0105 206.023C63.0105 206.022 63.0105 206.02 63.0105 206.019C63.0105 206.02 63.0105 206.021 63.0105 206.023ZM63.0078 205.949C63.0078 205.947 63.0078 205.946 63.0078 205.944C63.0078 205.946 63.0078 205.947 63.0078 205.949ZM63.005 205.873C63.005 205.871 63.005 205.87 63.005 205.869C63.005 205.871 63.005 205.871 63.005 205.873ZM63.0027 205.796V205.792C63.0027 205.794 63.0027 205.794 63.0027 205.796ZM63.0003 205.72L63 205.717L63.0003 205.72Z" fill="#B74E1E"/>
<path d="M116.049 256.647C116.047 256.647 116.044 256.647 116.042 256.647C89.8695 256.644 67.1438 237.357 63.5006 210.883C63.4966 210.855 63.4932 210.829 63.4893 210.8C63.475 210.696 63.461 210.59 63.4474 210.486C63.4447 210.467 63.4424 210.447 63.4397 210.428C63.4346 210.388 63.43 210.35 63.425 210.311C63.4219 210.287 63.4191 210.265 63.416 210.24C63.4156 210.237 63.4152 210.234 63.4148 210.23C63.4122 210.209 63.4091 210.186 63.4067 210.165C63.4059 210.162 63.4052 210.153 63.4048 210.15C63.402 210.128 63.3997 210.107 63.3971 210.087C63.3963 210.082 63.3955 210.075 63.3947 210.07C63.3924 210.049 63.39 210.029 63.3873 210.008C63.3865 210.001 63.3857 209.996 63.3849 209.989C63.3827 209.971 63.3804 209.95 63.378 209.931C63.3772 209.924 63.3765 209.917 63.3757 209.91C63.3737 209.893 63.3714 209.876 63.3695 209.859C63.3687 209.852 63.3676 209.843 63.3668 209.836C63.3648 209.818 63.3629 209.801 63.3605 209.784C63.3598 209.775 63.359 209.77 63.3582 209.761C63.356 209.743 63.3536 209.722 63.3517 209.704C63.3505 209.695 63.3497 209.689 63.3485 209.681C63.3466 209.663 63.3446 209.645 63.3428 209.627C63.3416 209.618 63.3404 209.607 63.3393 209.598C63.3373 209.581 63.3353 209.564 63.3334 209.547C63.3326 209.538 63.3314 209.527 63.3304 209.518C63.3292 209.505 63.3276 209.493 63.3261 209.481C63.3245 209.465 63.3229 209.453 63.3214 209.437C63.3202 209.426 63.3187 209.414 63.3175 209.402C63.316 209.388 63.3145 209.375 63.3133 209.361C63.3117 209.348 63.3105 209.337 63.309 209.324C63.3078 209.311 63.3063 209.297 63.3047 209.284C63.3035 209.272 63.3021 209.258 63.3005 209.245C63.2993 209.234 63.2981 209.221 63.297 209.21C63.295 209.194 63.2935 209.18 63.2919 209.164C63.2907 209.151 63.2897 209.142 63.2885 209.129C63.2873 209.118 63.2861 209.108 63.285 209.096C63.2834 209.081 63.2818 209.065 63.2799 209.049C63.2791 209.041 63.2783 209.031 63.2775 209.023C63.2753 209.003 63.2733 208.983 63.2714 208.965C63.2706 208.956 63.2702 208.952 63.2694 208.944C63.2675 208.925 63.2651 208.904 63.2636 208.884C63.2628 208.879 63.2621 208.87 63.2613 208.863C63.2598 208.847 63.2578 208.828 63.2563 208.812C63.2555 208.803 63.2543 208.791 63.2531 208.782C63.252 208.77 63.2508 208.757 63.2496 208.744C63.2489 208.736 63.2482 208.727 63.2474 208.719C63.2454 208.699 63.2435 208.681 63.2415 208.662C63.2411 208.655 63.2403 208.65 63.24 208.643C63.2376 208.622 63.236 208.602 63.2342 208.581C63.2334 208.575 63.2326 208.567 63.2322 208.561C63.2303 208.539 63.2283 208.52 63.2264 208.499C63.226 208.493 63.2252 208.485 63.2244 208.48C63.2225 208.457 63.2206 208.437 63.2187 208.414C63.2183 208.409 63.2179 208.404 63.2175 208.399C63.2136 208.359 63.2097 208.316 63.2063 208.276C63.2063 208.274 63.2059 208.274 63.2059 208.272C63.2035 208.247 63.2012 208.219 63.1992 208.194C63.1988 208.191 63.1985 208.185 63.1981 208.182C63.1961 208.16 63.1942 208.135 63.1919 208.112C63.1915 208.107 63.1915 208.104 63.1911 208.099C63.1892 208.077 63.1868 208.053 63.1853 208.029C63.1845 208.025 63.1845 208.022 63.1841 208.017C63.1806 207.977 63.1772 207.935 63.174 207.894L63.1737 207.892C63.1717 207.866 63.1694 207.84 63.1674 207.813C63.1671 207.808 63.1667 207.803 63.1663 207.798C63.1644 207.776 63.1628 207.754 63.1609 207.731C63.1605 207.726 63.1601 207.721 63.1597 207.716C63.1581 207.693 63.1562 207.671 63.1546 207.647C63.1542 207.643 63.1538 207.641 63.1535 207.636C63.152 207.611 63.15 207.587 63.1481 207.563C63.1481 207.56 63.1477 207.557 63.1473 207.554C63.1422 207.484 63.1372 207.416 63.1326 207.348C63.1322 207.344 63.1322 207.342 63.1318 207.338C63.1302 207.313 63.1286 207.29 63.1267 207.266C63.1267 207.263 63.1263 207.257 63.1259 207.253C63.1244 207.23 63.1229 207.21 63.1213 207.187C63.1209 207.18 63.1205 207.177 63.1202 207.17C63.1186 207.147 63.117 207.125 63.1159 207.102C63.1155 207.099 63.1151 207.092 63.1147 207.089C63.112 207.047 63.1097 207.009 63.107 206.968C63.1066 206.963 63.1066 206.958 63.1062 206.953C63.1046 206.93 63.1035 206.91 63.1019 206.887C63.1015 206.88 63.1011 206.875 63.1007 206.869C63.0995 206.847 63.0985 206.829 63.0969 206.808C63.0965 206.8 63.0961 206.793 63.0957 206.785C63.0946 206.766 63.0934 206.747 63.0922 206.728C63.0918 206.721 63.0914 206.711 63.0911 206.705C63.0899 206.687 63.0887 206.669 63.0879 206.652C63.0871 206.642 63.0868 206.633 63.0864 206.623C63.0857 206.611 63.0849 206.6 63.0841 206.588C63.0833 206.574 63.0826 206.557 63.0818 206.542C63.081 206.53 63.0806 206.52 63.0798 206.508C63.079 206.496 63.0787 206.488 63.0783 206.476C63.0771 206.461 63.0763 206.444 63.0755 206.428C63.0751 206.419 63.0744 206.41 63.074 206.4C63.0732 206.382 63.0724 206.369 63.0713 206.351C63.0709 206.34 63.0706 206.33 63.0698 206.319C63.069 206.305 63.0682 206.29 63.0674 206.276C63.067 206.264 63.0666 206.254 63.0659 206.241C63.0651 206.229 63.0647 206.22 63.0643 206.207C63.0635 206.191 63.0627 206.175 63.062 206.159C63.0616 206.15 63.0608 206.139 63.0604 206.13C63.0596 206.112 63.0588 206.095 63.0581 206.078C63.0578 206.07 63.0574 206.061 63.057 206.053C63.0562 206.035 63.055 206.016 63.0542 205.998C63.0539 205.991 63.0539 205.985 63.0535 205.978C63.0527 205.962 63.0519 205.943 63.0511 205.927C63.0507 205.92 63.0503 205.911 63.0499 205.904C63.0492 205.885 63.0484 205.868 63.0476 205.848C63.0476 205.843 63.0472 205.837 63.0468 205.832C63.046 205.811 63.0453 205.791 63.0446 205.771C63.0442 205.765 63.0442 205.758 63.0438 205.753C63.043 205.732 63.0422 205.712 63.0415 205.691C63.0411 205.685 63.0411 205.68 63.0407 205.675C63.0399 205.655 63.0391 205.633 63.0383 205.612C63.0379 205.608 63.0379 205.602 63.0379 205.599C63.0368 205.576 63.036 205.555 63.0352 205.532C63.0352 205.53 63.0352 205.529 63.0352 205.528C63.0344 205.505 63.0333 205.479 63.0325 205.458C63.0325 205.456 63.0325 205.455 63.0325 205.453C63.0317 205.429 63.0306 205.404 63.0298 205.38C63.0298 205.378 63.0298 205.378 63.0298 205.376C63.0291 205.351 63.0283 205.329 63.0275 205.303C63.0275 205.301 63.0275 205.301 63.0275 205.299C63.0263 205.273 63.0259 205.251 63.0251 205.226L63.0248 205.223C62.9472 202.691 63.0527 200.187 63.3292 197.728L74.9156 203.974C74.9295 205.576 75.0369 207.192 75.2437 208.821C77.8746 229.588 95.6123 244.764 116.064 244.764C117.786 244.764 119.53 244.656 121.282 244.435C127.604 243.638 133.41 241.451 138.43 238.221L150 244.46C142.689 250.517 133.666 254.688 123.594 256.114C123.543 256.121 123.493 256.128 123.443 256.135C123.441 256.135 123.439 256.136 123.437 256.136C123.423 256.138 123.41 256.139 123.396 256.141C123.391 256.142 123.389 256.142 123.384 256.143C123.372 256.145 123.358 256.146 123.345 256.148C123.342 256.148 123.34 256.148 123.336 256.149C123.304 256.153 123.271 256.158 123.239 256.162C123.236 256.162 123.23 256.163 123.227 256.164C123.215 256.165 123.204 256.167 123.193 256.168C123.187 256.169 123.179 256.17 123.174 256.171C123.164 256.172 123.153 256.174 123.143 256.175C123.138 256.176 123.133 256.176 123.128 256.177C123.116 256.179 123.105 256.18 123.094 256.182C123.089 256.182 123.084 256.183 123.079 256.184C123.064 256.186 123.05 256.187 123.035 256.189C123.034 256.19 123.033 256.19 123.032 256.19C123.017 256.192 123 256.194 122.985 256.196C122.98 256.197 122.972 256.198 122.967 256.198C122.957 256.2 122.947 256.201 122.937 256.202C122.931 256.203 122.925 256.204 122.92 256.205C122.909 256.206 122.9 256.207 122.889 256.209C122.884 256.209 122.876 256.21 122.87 256.211C122.859 256.212 122.851 256.213 122.84 256.215C122.835 256.216 122.828 256.216 122.823 256.217C122.807 256.219 122.792 256.221 122.776 256.223C120.516 256.508 118.269 256.647 116.05 256.647H116.049Z" fill="#F68623"/>
<path d="M116.463 243.664C95.855 243.664 77.9816 228.431 75.3306 207.586C75.1222 205.951 75.014 204.329 75 202.721L100.774 216.565L100.429 216.608L101.315 223.565L106.145 222.959L107.09 230.385L114.092 229.506L113.302 223.294L139 237.097C133.941 240.339 128.092 242.534 121.721 243.334C119.955 243.556 118.198 243.664 116.463 243.664Z" fill="#FABB29"/>
<path d="M106.338 230.682L105.438 223.17L100.842 223.783L100 216.745L100.328 216.702L112.248 223.508L113 229.792L106.338 230.682Z" fill="#F57E21"/>
<path d="M100.716 158.781L94 154.607C96.2412 153.48 98.5775 152.535 101 151.791C100.812 154.113 100.718 156.445 100.716 158.781Z" fill="#F68623"/>
<path d="M148.286 170.765C147.944 170.765 147.574 170.665 147.198 170.441C145.766 169.58 144.702 168.154 143.542 166.979C142.255 165.679 143.485 163.774 144.887 163.774C145.293 163.774 145.714 163.935 146.092 164.317C147.18 165.418 148.27 166.519 149.359 167.621C150.697 168.975 149.746 170.765 148.286 170.765Z" fill="#F9AA20"/>
<path d="M146 183.747L135.247 177.896C134.409 176.458 135.846 174.759 137.417 174.759C137.919 174.759 138.435 174.933 138.895 175.345C141.648 177.813 144.038 180.651 146 183.747Z" fill="#FAE750"/>
<path d="M181 165.772C160.65 154.861 109.04 127.376 77 111.085L126.691 104.856L176.068 127.068L181 165.772Z" fill="url(#paint10_linear_65_175)"/>
<path d="M193 266.633L150 243.423C150.672 242.725 151.322 242.011 151.951 241.279C163.954 230.122 170.593 213.556 168.38 196.071C168.366 195.958 168.35 195.844 168.335 195.73L185.212 205.104L191.713 256.462L193 266.633Z" fill="url(#paint11_linear_65_175)"/>
<path d="M150.269 243.664L150 243.511C150.684 242.916 151.351 242.301 152 241.667C151.442 242.349 150.865 243.014 150.269 243.664Z" fill="#A96D2A"/>
<path d="M149.938 243.664L149.932 243.661C155.008 239.425 159.251 234.267 162.437 228.478C158.136 228.173 153.898 227.547 149.763 226.513C155.404 218.451 158.188 208.334 156.861 197.789C156.433 194.386 155.601 191.133 154.42 188.073L168.534 195.959C168.549 196.073 168.565 196.187 168.579 196.301C170.787 213.851 164.163 230.478 152.188 241.677C151.458 242.36 150.708 243.023 149.938 243.664ZM102.2 164.432C102.065 162.551 101.998 160.666 102 158.781L108.837 162.602C106.543 163.03 104.326 163.646 102.2 164.432Z" fill="#F9AB29"/>
<path d="M150.438 226.688C144.169 225.148 138.134 222.705 132.48 219.068C133.237 218.622 133.973 218.079 134.658 217.418C136.423 215.714 138.395 212.647 137.763 207.721C137.341 204.427 135.915 201.73 133.642 199.913C135.346 197.654 136.098 194.727 135.667 191.366C135.037 186.44 132.354 183.953 130.215 182.736C128.022 181.49 125.68 181.128 123.694 181.128C123.232 181.128 122.79 181.148 122.373 181.18L121.902 177.503L117.517 178.05L117.985 181.706L115.562 182.008L115.094 178.353L110.709 178.899L111.177 182.554L107.934 182.959L107.198 177.222L104.069 177.612C103.01 173.344 102.318 168.986 102 164.606C104.165 163.82 106.423 163.204 108.759 162.776L136.065 177.758C136.179 177.953 136.332 178.144 136.533 178.325C141.859 183.141 145.636 189.349 147.413 196.259C147.698 197.363 148.559 197.842 149.447 197.842C150.789 197.842 152.193 196.75 151.762 195.076C150.727 191.05 149.056 187.194 146.842 183.671L155.182 188.247C156.384 191.307 157.231 194.56 157.667 197.963C159.019 208.509 156.183 218.625 150.438 226.688ZM151.698 201.99C151.222 201.99 150.732 202.123 150.312 202.386C148.447 203.561 149.623 206.658 149.394 208.458C149.217 209.845 150.404 210.597 151.605 210.597C152.747 210.597 153.9 209.917 153.904 208.457C154.114 206.814 154.004 205.171 153.703 203.543C153.512 202.501 152.631 201.99 151.698 201.99ZM125.806 214.044C125.687 213.939 125.568 213.835 125.448 213.729C122.594 211.195 119.987 208.43 117.637 205.479L124.694 204.599C125.018 204.558 125.33 204.499 125.644 204.443C125.766 204.439 125.891 204.436 126.018 204.436C127.123 204.436 128.309 204.634 129.171 205.313C130.234 206.15 130.615 207.56 130.747 208.596C131.071 211.12 130.047 212.108 129.711 212.434C128.854 213.26 127.469 213.831 125.806 214.044ZM113.025 198.941C111.558 196.581 110.229 194.137 109.044 191.625L108.82 189.879L122.453 188.18C122.875 188.127 123.286 188.101 123.682 188.101C124.859 188.101 125.897 188.333 126.68 188.779C127.087 189.01 128.328 189.716 128.652 192.241C129.036 195.242 127.724 196.931 124.583 197.537C124.32 197.559 124.071 197.564 123.796 197.598L113.025 198.941Z" fill="#F9DF42"/>
<path d="M131.726 218.699C129.492 217.223 127.318 215.55 125.213 213.663C126.836 213.449 128.188 212.877 129.024 212.049C129.352 211.723 130.351 210.732 130.035 208.202C129.906 207.164 129.534 205.751 128.497 204.912C127.656 204.232 126.499 204.033 125.42 204.033C125.297 204.033 125.174 204.036 125.055 204.04C124.749 204.096 124.445 204.156 124.128 204.196L117.241 205.078C115.615 202.981 114.116 200.794 112.74 198.525L123.252 197.18C123.52 197.145 123.763 197.14 124.02 197.118C127.085 196.511 128.365 194.818 127.991 191.81C127.675 189.279 126.464 188.572 126.066 188.34C125.302 187.893 124.289 187.66 123.141 187.66C122.754 187.66 122.353 187.687 121.941 187.74L108.637 189.443L108.855 191.193C106.79 186.695 105.167 181.978 104 177.148L107.054 176.757L107.772 182.507L110.936 182.101L110.48 178.438L114.759 177.89L115.216 181.553L117.58 181.251L117.124 177.587L121.403 177.039L121.863 180.724C122.27 180.691 122.701 180.672 123.152 180.672C125.09 180.672 127.376 181.034 129.516 182.284C131.603 183.504 134.222 185.996 134.837 190.933C135.258 194.302 134.523 197.235 132.86 199.499C135.079 201.321 136.471 204.024 136.882 207.325C137.499 212.263 135.575 215.337 133.852 217.045C133.184 217.707 132.465 218.251 131.726 218.699Z" fill="#F8A023"/>
<path d="M57.2332 193.733L36.1057 182.185L29.0716 125.915C28.7389 123.252 29.5856 120.713 31.2 118.836L94 154.16C91.2396 155.416 88.6137 156.902 86.1441 158.59C71.9679 165.34 61.4216 178.427 57.2332 193.733Z" fill="url(#paint12_linear_65_175)"/>
<path d="M62.9279 196.729L57 193.535C61.2012 178.399 71.7801 165.457 86 158.781C73.287 167.346 64.6759 181.179 62.9279 196.729Z" fill="#A96D2A"/>
<path d="M63.0004 196.729L63 196.728C64.7501 181.32 73.3718 167.614 86.1004 159.127C88.5805 157.474 91.2177 156.018 93.9901 154.787L94 154.793C76.9994 162.34 65.0922 178.315 63.0004 196.729Z" fill="#F9AB29"/>
<path d="M149.424 243.664L137.887 237.441C142.369 234.555 146.221 230.838 149.253 226.531C153.412 227.564 157.674 228.189 162 228.495C158.796 234.278 154.528 239.432 149.424 243.664ZM74.5534 203.276L63 197.045C65.0838 178.49 76.9456 162.392 93.8815 154.787L101.217 158.858C101.215 160.741 101.283 162.625 101.418 164.504C85.3447 170.404 74.4029 185.885 74.5534 203.276Z" fill="#F89A26"/>
<path d="M138.588 237.673L113.056 223.962L112.902 222.755L116.118 222.352L116.519 225.501L120.867 224.956L120.466 221.806L122.868 221.503L123.269 224.654L127.617 224.108L127.213 220.938C128.714 220.679 130.503 220.166 132.194 219.16C137.801 222.791 143.784 225.231 150 226.768C146.956 231.073 143.088 234.789 138.588 237.673ZM100.609 217.278L75.0015 203.526C74.8505 186.143 85.836 170.67 101.974 164.773C102.289 169.148 102.976 173.499 104.025 177.761L100.171 178.245L100.9 183.974L96.1004 184.576L96.9799 191.487L101.779 190.885L105.066 216.718L100.609 217.278ZM112.023 215.845L110.824 206.424L117.478 205.589C119.808 208.536 122.392 211.297 125.223 213.828C125.341 213.933 125.459 214.038 125.577 214.143C125.566 214.145 125.553 214.146 125.54 214.147L112.023 215.845ZM109.935 199.433L108.958 191.755C110.133 194.263 111.45 196.704 112.905 199.06L109.935 199.433Z" fill="#FCCA38"/>
<path d="M116.365 224.691L115.966 221.528L112.758 221.934L112.912 223.145L100.497 216.434L104.942 215.872L101.664 189.934L96.8772 190.538L96 183.599L100.787 182.995L100.06 177.242L103.904 176.757C105.087 181.588 106.731 186.307 108.824 190.807L109.798 198.517L112.761 198.142C114.155 200.412 115.674 202.6 117.322 204.698L110.685 205.536L111.881 214.995L125.363 213.291C125.376 213.29 125.388 213.288 125.4 213.286C127.532 215.173 129.736 216.848 132 218.324C130.313 219.334 128.529 219.849 127.032 220.109L127.434 223.292L123.098 223.84L122.698 220.677L120.302 220.98L120.702 224.143L116.365 224.691Z" fill="#F79323"/>
<path d="M149.571 197.728C148.671 197.728 147.797 197.252 147.509 196.154C145.706 189.282 141.876 183.108 136.474 178.319C136.27 178.14 136.115 177.95 136 177.755L146.929 183.635C149.175 187.139 150.869 190.973 151.92 194.978C152.357 196.642 150.932 197.728 149.571 197.728Z" fill="#F9ED62"/>
<path d="M150.48 210.71C149.223 210.71 147.981 210.012 148.165 208.725C148.406 207.054 147.174 204.179 149.126 203.089C149.566 202.845 150.079 202.721 150.578 202.721C151.554 202.721 152.476 203.195 152.676 204.162C152.991 205.674 153.106 207.199 152.887 208.724C152.883 210.078 151.675 210.71 150.48 210.71Z" fill="#F9ED62"/>
<path d="M165.056 90.1671C164.402 90.1671 163.743 90.2077 163.079 90.291L36.0117 106.287C27.4329 107.367 21.3349 115.198 22.4195 123.743L56.3955 391.488C56.9205 395.627 59.0322 399.314 62.3429 401.871C65.6532 404.429 69.768 405.552 73.9205 405.026L200.987 389.03C205.142 388.506 208.845 386.402 211.413 383.105C213.98 379.809 215.105 375.714 214.579 371.573L180.603 103.829C179.603 95.9465 172.834 90.1671 165.056 90.1671ZM71.9198 406.44C68.1752 406.44 64.557 405.213 61.5497 402.89C57.9664 400.121 55.68 396.129 55.1115 391.648L21.135 123.904C19.9619 114.654 26.5627 106.178 35.8495 105.008L162.915 89.012C172.2 87.844 180.713 94.4176 181.888 103.667L215.863 371.413C216.432 375.893 215.214 380.327 212.435 383.896C209.657 387.465 205.648 389.743 201.15 390.308L201.068 389.668L201.15 390.308L74.083 406.304C73.3593 406.394 72.6372 406.44 71.9198 406.44Z" fill="#F5FBF1"/>
<defs>
<linearGradient id="paint0_linear_65_175" x1="294.999" y1="372.487" x2="374.999" y2="372.487" gradientUnits="userSpaceOnUse">
<stop stop-color="#7331C6"/>
<stop offset="0.942708" stop-color="#E62EDE"/>
</linearGradient>
<linearGradient id="paint1_linear_65_175" x1="85" y1="37.9472" x2="165" y2="37.9472" gradientUnits="userSpaceOnUse">
<stop stop-color="#D63AA5"/>
<stop offset="0.997995" stop-color="#D792CF"/>
<stop offset="1" stop-color="#D792CF"/>
</linearGradient>
<linearGradient id="paint2_linear_65_175" x1="372.205" y1="-17.9277" x2="311.529" y2="287.76" gradientUnits="userSpaceOnUse">
<stop stop-color="#FFA5E3"/>
<stop offset="1" stop-color="#2B1567"/>
</linearGradient>
<linearGradient id="paint3_linear_65_175" x1="371.306" y1="-11.1291" x2="313.876" y2="286.612" gradientUnits="userSpaceOnUse">
<stop stop-color="#D05AB4"/>
<stop offset="1" stop-color="#8568BB"/>
</linearGradient>
<linearGradient id="paint4_linear_65_175" x1="372.05" y1="-20.968" x2="309.982" y2="288.586" gradientUnits="userSpaceOnUse">
<stop stop-color="#D05AB4"/>
<stop offset="1" stop-color="#8568BB"/>
</linearGradient>
<linearGradient id="paint5_linear_65_175" x1="371.935" y1="-19.6564" x2="309.663" y2="289.666" gradientUnits="userSpaceOnUse">
<stop stop-color="#D94CAE"/>
<stop offset="1" stop-color="#655DB4"/>
</linearGradient>
<linearGradient id="paint6_linear_65_175" x1="371.774" y1="-18.7688" x2="310.935" y2="287.19" gradientUnits="userSpaceOnUse">
<stop stop-color="#D94CAE"/>
<stop offset="1" stop-color="#655DB4"/>
</linearGradient>
<linearGradient id="paint7_linear_65_175" x1="136.42" y1="413.911" x2="96.9099" y2="72.8051" gradientUnits="userSpaceOnUse">
<stop stop-color="#4641A1"/>
<stop offset="0.00134342" stop-color="#4641A1"/>
<stop offset="0.997313" stop-color="#62CDF5"/>
<stop offset="1" stop-color="#62CDF5"/>
</linearGradient>
<linearGradient id="paint8_linear_65_175" x1="137.728" y1="416.278" x2="96.6219" y2="67.4016" gradientUnits="userSpaceOnUse">
<stop stop-color="#5E4AA8"/>
<stop offset="0.00134342" stop-color="#5E4AA8"/>
<stop offset="0.997313" stop-color="#7DD5F3"/>
<stop offset="1" stop-color="#7DD5F3"/>
</linearGradient>
<linearGradient id="paint9_linear_65_175" x1="136.536" y1="414.218" x2="97.0244" y2="71.8255" gradientUnits="userSpaceOnUse">
<stop stop-color="#5E4AA8"/>
<stop offset="0.00134342" stop-color="#5E4AA8"/>
<stop offset="0.997313" stop-color="#7DD5F3"/>
<stop offset="1" stop-color="#7DD5F3"/>
</linearGradient>
<linearGradient id="paint10_linear_65_175" x1="137.147" y1="411.752" x2="98.1588" y2="72.1552" gradientUnits="userSpaceOnUse">
<stop stop-color="#444BA7"/>
<stop offset="0.00134342" stop-color="#444BA7"/>
<stop offset="0.997313" stop-color="#67CEEF"/>
<stop offset="1" stop-color="#67CEEF"/>
</linearGradient>
<linearGradient id="paint11_linear_65_175" x1="136.793" y1="412.27" x2="97.5819" y2="72.9958" gradientUnits="userSpaceOnUse">
<stop stop-color="#444BA7"/>
<stop offset="0.00134342" stop-color="#444BA7"/>
<stop offset="0.997313" stop-color="#67CEEF"/>
<stop offset="1" stop-color="#67CEEF"/>
</linearGradient>
<linearGradient id="paint12_linear_65_175" x1="136.59" y1="415.844" x2="96.272" y2="71.3677" gradientUnits="userSpaceOnUse">
<stop stop-color="#444BA7"/>
<stop offset="0.00134342" stop-color="#444BA7"/>
<stop offset="0.997313" stop-color="#67CEEF"/>
<stop offset="1" stop-color="#67CEEF"/>
</linearGradient>
</defs>
</svg>
