<?xml version="1.0" encoding="utf-8"?><svg viewBox="0 0 916 606" xmlns="http://www.w3.org/2000/svg" xmlns:xlink="http://www.w3.org/1999/xlink"><style>:root>svg{display:none}:root>svg:target{display:block}</style><svg fill="none" viewBox="0 0 916 606" id="background-element" xmlns="http://www.w3.org/2000/svg"><path d="M162.111-296.237 1123.44 78.279 918.148 605.235 96.586 285.17C19.395 255.097-18.803 168.143 11.27 90.951L162.11-296.237Z" fill="url(#aa)"/><defs><linearGradient id="aa" x1="-189.276" y1="279.357" x2="1098.83" y2="662.053" gradientUnits="userSpaceOnUse"><stop stop-color="#2E00B1"/><stop offset=".484" stop-color="#8100BD"/><stop offset="1" stop-color="#A400BE"/></linearGradient></defs></svg><svg fill="none" viewBox="0 0 217 383" id="background-phone" xmlns="http://www.w3.org/2000/svg"><path d="m152.209-50.236 251.447 194.022-184.198 238.715L31.348 237.35c-34.98-26.991-41.456-77.229-14.464-112.209L152.209-50.236Z" fill="url(#ba)"/><defs><linearGradient id="ba" x1="-92.897" y1="207.713" x2="247.082" y2="445.016" gradientUnits="userSpaceOnUse"><stop stop-color="#2E00B1"/><stop offset=".484" stop-color="#8100BD"/><stop offset="1" stop-color="#A400BE"/></linearGradient></defs></svg><svg fill="none" viewBox="0 0 533 544" id="background-tablet" xmlns="http://www.w3.org/2000/svg"><path d="m207.512-204.804 571.43 356.914-244.559 391.547L47.767 239.718C.925 210.46-13.33 148.769 15.927 101.927l191.585-306.731Z" fill="url(#ca)"/><defs><linearGradient id="ca" x1="-145.198" y1="213.852" x2="629.144" y2="628.967" gradientUnits="userSpaceOnUse"><stop stop-color="#2E00B1"/><stop offset=".484" stop-color="#8100BD"/><stop offset="1" stop-color="#A400BE"/></linearGradient></defs></svg><svg fill="none" viewBox="0 0 24 34" id="change" xmlns="http://www.w3.org/2000/svg"><path d="M12 8v4.5l6-6-6-6V5C5.37 5 0 10.37 0 17c0 2.355.69 4.545 1.86 6.39l2.19-2.19A8.806 8.806 0 0 1 3 17c0-4.965 4.035-9 9-9Zm10.14 2.61-2.19 2.19A9.027 9.027 0 0 1 21 17c0 4.965-4.035 9-9 9v-4.5l-6 6 6 6V29c6.63 0 12-5.37 12-12 0-2.355-.69-4.545-1.86-6.39Z" fill="url(#da)"/><defs><linearGradient id="da" x1="-2.756" y1="39.239" x2="28.576" y2="38.204" gradientUnits="userSpaceOnUse"><stop stop-color="#2E00B1"/><stop offset=".484" stop-color="#8100BD"/><stop offset="1" stop-color="#A400BE"/></linearGradient></defs></svg><svg fill="none" viewBox="0 0 54 54" id="check" xmlns="http://www.w3.org/2000/svg"><rect width="54" height="54" rx="27" fill="#0EFF0A"/><path d="M22.5 33.255 16.245 27l-2.13 2.115L22.5 37.5l18-18-2.115-2.115L22.5 33.255Z" fill="#fff"/></svg><svg fill="none" viewBox="0 0 30 30" id="comfort" xmlns="http://www.w3.org/2000/svg"><path d="M15 0C6.72 0 0 6.72 0 15c0 8.28 6.72 15 15 15 8.28 0 15-6.72 15-15 0-8.28-6.72-15-15-15Zm-3 22.5L4.5 15l2.115-2.115L12 18.255 23.385 6.87 25.5 9 12 22.5Z" fill="url(#fa)"/><defs><linearGradient id="fa" x1="-3.445" y1="35.217" x2="35.682" y2="33.44" gradientUnits="userSpaceOnUse"><stop stop-color="#2E00B1"/><stop offset=".484" stop-color="#8100BD"/><stop offset="1" stop-color="#A400BE"/></linearGradient></defs></svg><svg fill="none" viewBox="0 0 139 38" id="logo" xmlns="http://www.w3.org/2000/svg"><mask id="ha" fill="#fff"><rect width="25" height="25" rx="1"/></mask><rect width="25" height="25" rx="1" stroke="#B865D6" stroke-width="4" mask="url(#ha)"/><mask id="hb" fill="#fff"><rect x="13" y="13" width="25" height="25" rx="1"/></mask><rect x="13" y="13" width="25" height="25" rx="1" stroke="#4B00CA" stroke-width="4" mask="url(#hb)"/><path d="M56.756 26.198c-1.57 0-2.911-.323-4.026-.968-1.115-.645-1.973-1.562-2.574-2.75-.587-1.203-.88-2.618-.88-4.246 0-1.628.293-3.036.88-4.224.601-1.188 1.46-2.105 2.574-2.75 1.115-.645 2.457-.968 4.026-.968.865 0 1.694.117 2.486.352.807.235 1.503.572 2.09 1.012.323.205.506.455.55.748.059.279.015.535-.132.77a.964.964 0 0 1-.594.44c-.264.073-.557 0-.88-.22a5.3 5.3 0 0 0-1.628-.814 6.176 6.176 0 0 0-1.826-.264c-1.672 0-2.948.513-3.828 1.54-.88 1.027-1.32 2.486-1.32 4.378s.44 3.359 1.32 4.4c.88 1.027 2.156 1.54 3.828 1.54.645 0 1.261-.088 1.848-.264a5.533 5.533 0 0 0 1.694-.836c.323-.205.609-.271.858-.198.25.059.44.198.572.418.132.22.176.47.132.748-.044.264-.198.491-.462.682a6.512 6.512 0 0 1-2.156 1.1 8.595 8.595 0 0 1-2.552.374Zm7.734-5.17a.895.895 0 0 1-.66-.264.87.87 0 0 1-.264-.638c0-.264.088-.477.264-.638a.895.895 0 0 1 .66-.264h4.84a.87.87 0 0 1 .638.264.824.824 0 0 1 .264.638.87.87 0 0 1-.264.638.87.87 0 0 1-.638.264h-4.84Zm10.025 5.126c-.704 0-1.056-.36-1.056-1.078V11.414c0-.719.352-1.078 1.056-1.078.308 0 .543.059.704.176.176.117.338.308.484.572l5.412 10.12 5.412-10.12c.147-.264.301-.455.462-.572.176-.117.411-.176.704-.176.675 0 1.012.36 1.012 1.078v13.662c0 .719-.337 1.078-1.012 1.078-.689 0-1.034-.36-1.034-1.078V14.648l-4.62 8.514c-.117.22-.242.381-.374.484-.132.103-.315.154-.55.154-.249 0-.447-.051-.594-.154a1.91 1.91 0 0 1-.374-.484l-4.62-8.492v10.406c0 .719-.337 1.078-1.012 1.078Zm22.272.044c-1.086 0-2.025-.227-2.817-.682a4.741 4.741 0 0 1-1.847-1.914c-.426-.836-.639-1.826-.639-2.97 0-1.144.213-2.127.639-2.948a4.707 4.707 0 0 1 1.847-1.936c.793-.455 1.731-.682 2.817-.682 1.055 0 1.98.227 2.771.682a4.705 4.705 0 0 1 1.849 1.936c.44.821.66 1.804.66 2.948s-.22 2.134-.66 2.97a4.739 4.739 0 0 1-1.849 1.914c-.792.455-1.716.682-2.772.682Zm0-1.716c.909 0 1.642-.33 2.2-.99.557-.66.836-1.613.836-2.86 0-1.247-.28-2.193-.836-2.838-.558-.66-1.291-.99-2.2-.99-.925 0-1.665.33-2.223.99-.557.645-.835 1.591-.835 2.838s.278 2.2.835 2.86c.558.66 1.299.99 2.223.99Zm8.875 1.672c-.733 0-1.1-.374-1.1-1.122v-8.8c0-.748.359-1.122 1.078-1.122.719 0 1.078.374 1.078 1.122v.814a3.709 3.709 0 0 1 1.496-1.474c.645-.337 1.364-.506 2.156-.506 2.537 0 3.806 1.437 3.806 4.312v5.654c0 .748-.367 1.122-1.1 1.122-.748 0-1.122-.374-1.122-1.122V19.51c0-.924-.183-1.599-.55-2.024-.352-.425-.909-.638-1.672-.638-.895 0-1.613.286-2.156.858-.528.557-.792 1.298-.792 2.222v5.104c0 .748-.374 1.122-1.122 1.122Zm16.614.044c-1.76 0-3.146-.491-4.158-1.474-1.012-.997-1.518-2.354-1.518-4.07 0-1.1.22-2.068.66-2.904a4.965 4.965 0 0 1 1.87-1.98c.792-.47 1.701-.704 2.728-.704 1.481 0 2.647.477 3.498 1.43.85.939 1.276 2.237 1.276 3.894 0 .499-.294.748-.88.748h-6.996c.161 2.23 1.342 3.344 3.542 3.344.44 0 .902-.051 1.386-.154a4.585 4.585 0 0 0 1.408-.616c.308-.176.572-.235.792-.176a.675.675 0 0 1 .506.374c.102.19.117.41.044.66-.059.235-.228.44-.506.616a5.678 5.678 0 0 1-1.76.77 7.973 7.973 0 0 1-1.892.242Zm-.33-9.57c-.924 0-1.658.286-2.2.858-.543.572-.873 1.335-.99 2.288h6.006c-.044-.997-.308-1.767-.792-2.31-.484-.557-1.159-.836-2.024-.836Zm9.488 13.486c-.411 0-.697-.154-.858-.462-.147-.293-.132-.638.044-1.034l1.298-2.904-3.916-9.086c-.176-.396-.184-.748-.022-1.056.176-.308.513-.462 1.012-.462.264 0 .476.066.638.198.176.132.33.36.462.682l3.014 7.436 3.058-7.436c.132-.337.286-.565.462-.682.176-.132.418-.198.726-.198.396 0 .667.154.814.462.146.308.139.653-.022 1.034l-5.5 12.65c-.147.337-.316.565-.506.682-.176.117-.411.176-.704.176Z" fill="#210B36"/></svg><svg fill="none" viewBox="0 0 141 38" id="logo-white" xmlns="http://www.w3.org/2000/svg"><mask id="ga" fill="#fff"><rect width="25" height="25" rx="1"/></mask><rect width="25" height="25" rx="1" stroke="#fff" stroke-width="4" mask="url(#ga)"/><mask id="gb" fill="#fff"><rect x="13" y="13" width="25" height="25" rx="1"/></mask><rect x="13" y="13" width="25" height="25" rx="1" stroke="#fff" stroke-width="4" mask="url(#gb)"/><path d="M56.756 26.198c-1.57 0-2.911-.323-4.026-.968-1.115-.645-1.973-1.562-2.574-2.75-.587-1.203-.88-2.618-.88-4.246 0-1.628.293-3.036.88-4.224.601-1.188 1.46-2.105 2.574-2.75 1.115-.645 2.457-.968 4.026-.968.865 0 1.694.117 2.486.352.807.235 1.503.572 2.09 1.012.323.205.506.455.55.748.059.279.015.535-.132.77a.964.964 0 0 1-.594.44c-.264.073-.557 0-.88-.22a5.3 5.3 0 0 0-1.628-.814 6.176 6.176 0 0 0-1.826-.264c-1.672 0-2.948.513-3.828 1.54-.88 1.027-1.32 2.486-1.32 4.378s.44 3.359 1.32 4.4c.88 1.027 2.156 1.54 3.828 1.54.645 0 1.261-.088 1.848-.264a5.533 5.533 0 0 0 1.694-.836c.323-.205.609-.271.858-.198.25.059.44.198.572.418.132.22.176.47.132.748-.044.264-.198.491-.462.682a6.512 6.512 0 0 1-2.156 1.1 8.595 8.595 0 0 1-2.552.374Zm7.734-5.17a.895.895 0 0 1-.66-.264.87.87 0 0 1-.264-.638c0-.264.088-.477.264-.638a.895.895 0 0 1 .66-.264h4.84a.87.87 0 0 1 .638.264.824.824 0 0 1 .264.638.87.87 0 0 1-.264.638.87.87 0 0 1-.638.264h-4.84Zm10.025 5.126c-.704 0-1.056-.36-1.056-1.078V11.414c0-.719.352-1.078 1.056-1.078.308 0 .543.059.704.176.176.117.338.308.484.572l5.412 10.12 5.412-10.12c.147-.264.301-.455.462-.572.176-.117.411-.176.704-.176.675 0 1.012.36 1.012 1.078v13.662c0 .719-.337 1.078-1.012 1.078-.689 0-1.034-.36-1.034-1.078V14.648l-4.62 8.514c-.117.22-.242.381-.374.484-.132.103-.315.154-.55.154-.249 0-.447-.051-.594-.154a1.91 1.91 0 0 1-.374-.484l-4.62-8.492v10.406c0 .719-.337 1.078-1.012 1.078Zm22.272.044c-1.086 0-2.025-.227-2.817-.682a4.741 4.741 0 0 1-1.847-1.914c-.426-.836-.639-1.826-.639-2.97 0-1.144.213-2.127.639-2.948a4.707 4.707 0 0 1 1.847-1.936c.793-.455 1.731-.682 2.817-.682 1.055 0 1.98.227 2.771.682a4.705 4.705 0 0 1 1.849 1.936c.44.821.66 1.804.66 2.948s-.22 2.134-.66 2.97a4.739 4.739 0 0 1-1.849 1.914c-.792.455-1.716.682-2.772.682Zm0-1.716c.909 0 1.642-.33 2.2-.99.557-.66.836-1.613.836-2.86 0-1.247-.28-2.193-.836-2.838-.558-.66-1.291-.99-2.2-.99-.925 0-1.665.33-2.223.99-.557.645-.835 1.591-.835 2.838s.278 2.2.835 2.86c.558.66 1.299.99 2.223.99Zm8.875 1.672c-.733 0-1.1-.374-1.1-1.122v-8.8c0-.748.359-1.122 1.078-1.122.719 0 1.078.374 1.078 1.122v.814a3.709 3.709 0 0 1 1.496-1.474c.645-.337 1.364-.506 2.156-.506 2.537 0 3.806 1.437 3.806 4.312v5.654c0 .748-.367 1.122-1.1 1.122-.748 0-1.122-.374-1.122-1.122V19.51c0-.924-.183-1.599-.55-2.024-.352-.425-.909-.638-1.672-.638-.895 0-1.613.286-2.156.858-.528.557-.792 1.298-.792 2.222v5.104c0 .748-.374 1.122-1.122 1.122Zm16.614.044c-1.76 0-3.146-.491-4.158-1.474-1.012-.997-1.518-2.354-1.518-4.07 0-1.1.22-2.068.66-2.904a4.965 4.965 0 0 1 1.87-1.98c.792-.47 1.701-.704 2.728-.704 1.481 0 2.647.477 3.498 1.43.85.939 1.276 2.237 1.276 3.894 0 .499-.294.748-.88.748h-6.996c.161 2.23 1.342 3.344 3.542 3.344.44 0 .902-.051 1.386-.154a4.585 4.585 0 0 0 1.408-.616c.308-.176.572-.235.792-.176a.675.675 0 0 1 .506.374c.102.19.117.41.044.66-.059.235-.228.44-.506.616a5.678 5.678 0 0 1-1.76.77 7.973 7.973 0 0 1-1.892.242Zm-.33-9.57c-.924 0-1.658.286-2.2.858-.543.572-.873 1.335-.99 2.288h6.006c-.044-.997-.308-1.767-.792-2.31-.484-.557-1.159-.836-2.024-.836Zm9.488 13.486c-.411 0-.697-.154-.858-.462-.147-.293-.132-.638.044-1.034l1.298-2.904-3.916-9.086c-.176-.396-.184-.748-.022-1.056.176-.308.513-.462 1.012-.462.264 0 .476.066.638.198.176.132.33.36.462.682l3.014 7.436 3.058-7.436c.132-.337.286-.565.462-.682.176-.132.418-.198.726-.198.396 0 .667.154.814.462.146.308.139.653-.022 1.034l-5.5 12.65c-.147.337-.316.565-.506.682-.176.117-.411.176-.704.176Z" fill="#fff"/></svg><svg fill="none" viewBox="0 0 455 408" id="phones" xmlns="http://www.w3.org/2000/svg"><rect width="159.996" height="301.591" rx="24" transform="rotate(-7.288 864.141 -94.754) skewX(.008)" fill="#6E479E"/><rect width="159.999" height="301.587" rx="24" transform="matrix(.99668 .08145 -.0817 .99666 270 0)" fill="#6E479E"/><path d="M231.436 164.773c-1.14 0-1.088 5.349-4.033 9.19-2.555 3.333-6.403 4.215-6.403 5.621 0 1.292 3.842 1.52 6.599 4.897 2.397 2.936 2.995 8.254 4.076 8.254 1.079 0 .785-5.041 3.585-8.576 2.855-3.604 6.74-3.682 6.74-4.886 0-1.228-4.565-2.237-6.941-5.575-2.5-3.514-2.364-8.925-3.623-8.925ZM210.473 200.724c-.49 0-.467 2.292-1.729 3.938-1.095 1.429-2.744 1.807-2.744 2.41 0 .552 1.646.65 2.828 2.098 1.028 1.258 1.284 3.537 1.748 3.537.461 0 .336-2.16 1.535-3.675 1.225-1.544 2.889-1.578 2.889-2.094 0-.526-1.957-.959-2.974-2.389-1.072-1.507-1.013-3.825-1.553-3.825ZM22.436 335.538c-1.14 0-1.088 5.35-4.033 9.19-2.555 3.333-6.403 4.214-6.403 5.622 0 1.291 3.841 1.519 6.599 4.896 2.397 2.935 2.995 8.253 4.076 8.253 1.08 0 .785-5.039 3.586-8.574 2.854-3.604 6.739-3.683 6.739-4.887 0-1.228-4.565-2.237-6.94-5.574-2.5-3.516-2.365-8.926-3.624-8.926ZM4.472 374.484c-.488 0-.466 2.293-1.728 3.939C1.65 379.851 0 380.228 0 380.832c0 .553 1.646.651 2.828 2.098 1.028 1.258 1.284 3.538 1.747 3.538.463 0 .337-2.16 1.537-3.676C7.335 381.248 9 381.214 9 380.698c0-.526-1.957-.959-2.974-2.389-1.072-1.506-1.014-3.825-1.554-3.825ZM444.435 274.622c-1.139 0-1.088 5.349-4.031 9.189-2.557 3.333-6.404 4.214-6.404 5.622 0 1.29 3.841 1.519 6.599 4.896 2.397 2.935 2.995 8.254 4.077 8.254 1.079 0 .784-5.041 3.585-8.576 2.855-3.604 6.739-3.681 6.739-4.886 0-1.227-4.565-2.237-6.939-5.575-2.501-3.515-2.367-8.924-3.626-8.924ZM426.473 249.656c-.489 0-.467 2.293-1.728 3.938-1.096 1.429-2.745 1.807-2.745 2.409 0 .554 1.647.653 2.828 2.1 1.028 1.257 1.284 3.537 1.748 3.537.461 0 .336-2.161 1.535-3.676 1.225-1.545 2.889-1.578 2.889-2.093 0-.526-1.956-.959-2.974-2.39-1.072-1.507-1.013-3.825-1.553-3.825Z" fill="#F6FCF4"/><path d="M375 337.535h-26.332c-2.796 36.083-24.755 43.603-31.144 45.033v-9.87L295 390.068l22.524 17.371v-10.44c50.99-4.021 57.476-59.464 57.476-59.464Z" fill="url(#ia)"/><path d="M85 72.9h26.331c2.796-36.084 24.756-43.603 31.144-45.035v9.872L165 20.367 142.475 2.995v10.44C91.485 17.455 85 72.9 85 72.9Z" fill="url(#ib)"/><path d="M390.216 296.591c-.261 0-.523-.011-.787-.034l-127.208-10.985c-4.951-.428-8.615-4.771-8.187-9.699l1.618-18.565 6.697-76.917 45.433-26.996c9.048 8.7 21.473 14.437 35.151 15.808 1.81.181 3.61.27 5.391.27 26.978 0 50.095-20.362 52.854-47.663a54.151 54.151 0 0 0-2.475-22.44l17.849-10.607-16.501 189.506-.882 10.136c-.407 4.667-4.336 8.186-8.953 8.186ZM307.9 212.65l-.535 6.151 54.287 4.688.535-6.15-54.287-4.689Zm1.546-17.748-.535 6.151 83.448 7.206.536-6.151-83.449-7.206Zm-41.721-76.245 3.422-39.3c19.815-11.822 70.77-42.029 102.125-59.807l39.978 3.452a8.977 8.977 0 0 1 5.75 2.76l-58.864 36.147a53.448 53.448 0 0 0-14.285-3.45 54.147 54.147 0 0 0-5.391-.271c-26.978 0-50.095 20.363-52.854 47.663-.022.211-.042.424-.061.635l-19.82 12.171Zm6.833-78.471 1.744-20.017c.405-4.666 4.335-8.186 8.951-8.186.26 0 .523.011.788.034l37.761 3.261-49.244 24.908Z" fill="url(#ic)"/><path d="M280.808 206.138c-1.007-.486-2.752 1.338-2.807 1.969-.056.629 3.126 4.89 3.363 5.186.237.296 3.143.579 3.466.296.32-.284 1.834-7.366 15.137-20.766.705-.713-9.989 2.711-16.833 16.826 0 0-1.575-3.15-2.326-3.511Z" fill="#6FCEC3"/><path d="M391.464 208.713 308 201.709l.535-5.979L392 202.734l-.536 5.979Z" fill="url(#id)"/><path d="M361.462 223.692 307 218.94l.537-6.233L362 217.459l-.538 6.233Z" fill="url(#ie)"/><path d="M293.25 114.284c-2.954 29.269 20.651 52.264 49.995 55.21 29.345 2.946 55.527-18.392 58.481-47.661 2.954-29.27-18.303-56.742-47.647-59.688-29.345-2.947-57.875 22.871-60.829 52.139Z" fill="#B5571F"/><path d="M288.27 105.547c-2.931 29.082 18.3 55.03 47.422 57.957 29.121 2.927 55.106-18.274 58.037-47.356 2.933-29.081-18.3-55.03-47.422-57.958-29.122-2.927-55.105 18.275-58.037 47.357Z" fill="#F79722"/><path d="M302 97.865c5.621-16.5 21.338-27.961 39.237-27.961a42.36 42.36 0 0 1 5.763.395l-31.694 19.415a2.626 2.626 0 0 0-1.743-.682c-.681 0-1.37.29-1.872.992a35.411 35.411 0 0 0-1.989 3.123L302 97.865Z" fill="#F9D632"/><path d="m334.908 163.774-.021-.002a.15.15 0 0 0 .021.002Zm-.048-.005-.025-.002.025.002Zm-.051-.005-.042-.004.042.004Zm-.066-.007Zm-.047-.005-.033-.003.033.003Zm-.045-.005-.115-.011.115.011Zm-.12-.012-.038-.004.038.004Zm-.045-.005Zm-1.809-.232-.158-.024.158.024Zm-.169-.025Zm-.046-.007a4.413 4.413 0 0 0-.104-.016l.104.016Zm-.123-.019-.026-.004.026.004Zm-.052-.008-.02-.003.02.003Zm-.068-.01-.006-.001.006.001Zm-.05-.008Zm-.053-.009-.009-.001.009.001Zm-.114-.018H332h.002Zm60.735-47.416.002-.018-.002.018Zm.005-.053.002-.021-.002.021Zm.007-.068.002-.024a.212.212 0 0 1-.002.024Zm.004-.05.002-.027-.002.027Zm.005-.052.004-.043-.004.043Zm.007-.071.002-.031-.002.031Zm.004-.048.003-.034-.003.034Zm.004-.041.007-.076-.007.076Zm.007-.082Zm.004-.044.012-.125-.012.125Zm.012-.126Zm.196-3.756.002-.119-.002.119Zm.002-.128.001-.037-.001.037Zm.001-.044.001-.067-.001.067Zm.001-.083.001-.031-.001.031Zm.001-.054v-.025.025Zm.001-.072v-.02.02Zm0-.052v-.019.019Zm.001-.06v-.011.011Zm0-.063v-.012.012Zm.001-.057v-.01.01Zm0-.121v-.006.006Z" fill="#B74E1E"/><path d="M340.226 163.774a53.749 53.749 0 0 1-5.402-.273l-.021-.002-.028-.003-.025-.002-.025-.002-.043-.004-.023-.003-.032-.003-.016-.002-.032-.003-.013-.002-.115-.012-.005-.001-.038-.004-.007-.001a50.586 50.586 0 0 1-1.806-.228h-.005l-.159-.023-.011-.001a.347.347 0 0 0-.047-.007l-.103-.016-.019-.003-.027-.004-.025-.004-.02-.003-.048-.007-.006-.001-.045-.006a.475.475 0 0 1-.052-.009l-.01-.001-.105-.017h-.002A52.65 52.65 0 0 1 308 152.914l11.208-6.652a40.984 40.984 0 0 0 16.851 5.516c1.393.139 2.782.208 4.154.208 20.789.002 38.6-15.671 40.727-36.686.197-1.948.252-3.88.175-5.782l11.222-6.66c.448 2.781.675 5.629.662 8.519v.242l-.001.041v.07l-.001.047v.047l-.001.03v.016l-.001.066v.007l-.001.036v.009l-.002.118v.004a52.4 52.4 0 0 1-.197 3.694v.001l-.012.124v.004a.515.515 0 0 1-.004.039v.006l-.007.074-.001.007-.003.034a.078.078 0 0 1-.002.016l-.002.031-.003.027-.003.043-.003.024-.002.028-.003.025-.002.024-.005.046-.002.021-.003.034-.002.018a.801.801 0 0 0-.005.051c-2.742 27.092-25.704 47.296-52.505 47.293Z" fill="#F68623"/><path d="M340.025 151.791c-1.373 0-2.763-.07-4.158-.211A40.725 40.725 0 0 1 319 146.003l15.706-9.417 2.235 4.277 8.881-10.941 35.145-21.072a41.893 41.893 0 0 1-.176 5.846c-2.129 21.25-19.957 37.097-40.766 37.095Z" fill="#FABB29"/><path d="M337.212 141.805 335 137.511l11-6.691-8.788 10.985Z" fill="#F57E21"/><path d="M314.655 73.898c-1.452 0-2.414-2.357-.861-3.446 6.361-4.463 13.822-7.03 21.506-7.535.046-.003.091-.004.135-.004 2.138 0 2.078 3.483-.135 3.628-7.077.465-13.878 2.94-19.723 7.04-.316.222-.63.317-.922.317ZM348.033 66.908c-1.833 0-4.413-1.057-5.305-1.12-2.29-.16-2.273-3.873-.134-3.873a1.9 1.9 0 0 1 .134.005c2.15.15 4.311.731 6.29 1.637.582.267.868.684.937 1.142.261 1.701-.651 2.209-1.922 2.209Z" fill="#F9AA20"/><path d="M309 92.872c.65-1.04 1.36-2.054 2.129-3.032a2.493 2.493 0 0 1 2.005-.962c.693 0 1.377.255 1.866.662l-6 3.332Z" fill="#FAE750"/><path d="m271 78.891 3.407-39.679 49.184-25.231L373 18.308c-31.316 18.009-82.209 48.608-102 60.583Z" fill="url(#if)"/><path d="m262 179.752 5.372-61.797 19.805-12.183c-1.548 17.406 5.535 33.632 17.758 44.417.79.872 1.612 1.72 2.464 2.54L262 179.752Zm136.251-81.103c-4.788-14.54-15.508-26.741-29.533-32.901a52.81 52.81 0 0 0-9.005-4.598l58.82-36.184a8.934 8.934 0 0 1 2.433 6.947l-4.879 56.118-17.836 10.618Z" fill="url(#ig)"/><path d="M307.455 152.79a52.403 52.403 0 0 1-2.455-2.537c.909.804 1.849 1.58 2.815 2.322l-.36.215Zm84.912-50.658c-2.412-15.032-11.225-28.183-23.8-36.223 13.978 6.153 24.661 18.34 29.433 32.863l-5.633 3.36Z" fill="#A96D2A"/><path d="M308.668 152.79a52.766 52.766 0 0 1-2.807-2.313c-12.149-10.727-19.191-26.867-17.651-44.179l13.809-8.5a40.994 40.994 0 0 0-1.96 9.052 40.68 40.68 0 0 0 6.03 25.792 95.836 95.836 0 0 1-12.74 1.416 53.073 53.073 0 0 0 15.323 18.73l-.004.002ZM393 102.559c-2.335-14.528-10.684-27.286-22.64-35.345-1.112 4.023-2.323 8.031-3.699 11.97a40.8 40.8 0 0 0-20.185-8.753l13.835-8.516a52.474 52.474 0 0 1 8.951 4.573C381.804 74.494 390.595 87.59 393 102.56Z" fill="#F9AB29"/><path d="M305.257 131.818a41.413 41.413 0 0 1-6.047-26.083 41.735 41.735 0 0 1 1.965-9.155l7.631-4.736c-2.96 5.3-4.566 11.326-4.685 17.418-.028 1.443 1.072 2.165 2.186 2.165 1.114 0 2.242-.722 2.27-2.165.128-6.588 2.267-12.92 6.047-18.29.685-.972.408-1.947-.266-2.575l31.4-19.492A40.748 40.748 0 0 1 366 77.757c-3.005 8.677-6.793 17.017-12.033 24.445l-10.822-22.8-20.976 27.987 18.952-7.739 9.805 6.553a65.671 65.671 0 0 1-1.353 1.598l-8.704-5.632-17.524 6.993 12.686 10.465a73.7 73.7 0 0 1-3.285 2.078l-10.942-10.665 6.769 12.976c-7.312 3.756-15.198 6.325-23.316 7.802Zm1.737-17.23c-1.314 0-2.714 1.076-2.333 2.771.339 1.51.891 2.971 1.575 4.357.402.814.987 1.146 1.587 1.146 1.372 0 2.822-1.735 2.346-3.434-.319-1.134-.997-2.309-1.211-3.262-.246-1.098-1.086-1.578-1.964-1.578Z" fill="#F9DF42"/><path d="M336.059 120.834 323 110.657l18.04-6.8 8.96 5.477a64.132 64.132 0 0 1-4.629 4.525 73.172 73.172 0 0 1-9.312 6.975ZM328.804 124.828 322 111.846l11 10.669a76.426 76.426 0 0 1-4.196 2.313Z" fill="#F8A023"/><path d="m322 107.851 20.449-27.961L353 102.67a68.888 68.888 0 0 1-2.965 3.996l-9.559-6.546L322 107.851Z" fill="#F8A023"/><path d="M308.377 152.79A53.24 53.24 0 0 1 293 133.992c4.292-.191 8.57-.66 12.785-1.42a41.259 41.259 0 0 0 13.837 13.519l-11.245 6.699Zm73.363-43.702c-.485-12.016-6.225-22.904-15.171-30.167 1.38-3.953 2.596-7.975 3.712-12.013C382.279 74.996 390.657 87.8 393 102.38l-11.26 6.707Z" fill="#F89A26"/><path d="M318.846 146.798A41.199 41.199 0 0 1 305 133.332c8.128-1.461 16.024-4 23.345-7.713l6.254 11.836-15.753 9.343Zm26.903-15.954 11.855-14.447-19.452 12.352-5.628-5.415a74.22 74.22 0 0 0 3.289-2.053l2.86 2.33 17.861-9.445-7.162-4.576a67.25 67.25 0 0 0 1.355-1.58l7.243 4.778-4.199-8.733c5.247-7.343 9.04-15.587 12.049-24.165 8.951 7.235 14.694 18.08 15.18 30.049l-35.251 20.905Z" fill="#FCCA38"/><path d="M338.899 122.831 336 120.507a72.33 72.33 0 0 0 9.179-7.069 63.88 63.88 0 0 0 4.563-4.588l7.258 4.563-18.101 9.418Z" fill="#F79323"/><path d="M335.199 136.812 329 124.463a74.524 74.524 0 0 0 4.142-2.384l5.578 5.649L358 114.842l-11.75 15.072-11.051 6.898ZM358 111.846l-7-4.918a69.908 69.908 0 0 0 2.942-4.07l4.058 8.988Z" fill="#F79323"/><path d="M306.207 112.845c-1.124 0-2.234-.72-2.206-2.16.119-6.075 1.74-12.085 4.727-17.371l5.603-3.438c.681.626.96 1.599.269 2.57-3.815 5.353-5.974 11.669-6.103 18.239-.028 1.44-1.166 2.16-2.29 2.16ZM308.417 123.829c-.635 0-1.255-.32-1.681-1.106-.725-1.338-1.309-2.749-1.669-4.207-.403-1.636 1.08-2.676 2.471-2.676.931 0 1.82.464 2.081 1.524.227.92.946 2.055 1.283 3.15.504 1.64-1.032 3.315-2.485 3.315Z" fill="#F9ED62"/><path d="M387.477 313.219c8.595.753 16.147-5.629 16.89-14.206l23.286-268.746c.36-4.155-.918-8.201-3.6-11.394a15.491 15.491 0 0 0-10.595-5.51L286.524 2.347a15.528 15.528 0 0 0-11.387 3.602 15.52 15.52 0 0 0-5.504 10.605l-23.287 268.745c-.743 8.578 5.626 16.16 14.196 16.904l126.935 11.016Zm1.359 1.348c-.487 0-.977-.022-1.47-.065L260.43 303.487c-9.277-.805-16.169-9.015-15.366-18.299l23.287-268.746a16.79 16.79 0 0 1 5.959-11.479 16.771 16.771 0 0 1 12.325-3.9L413.568 12.08a16.769 16.769 0 0 1 11.471 5.964 16.8 16.8 0 0 1 3.897 12.335l-23.287 268.746c-.761 8.79-8.155 15.442-16.813 15.442Z" fill="#F5FBF1"/><path d="M69.92 389.464a8.96 8.96 0 0 1-8.875-7.839L35.907 182.602l21.134 11.433a54.371 54.371 0 0 0-1.555 21.33c3.382 26.776 26.178 46.344 52.463 46.344 2.213 0 4.453-.139 6.706-.424 13.801-1.745 26.202-7.971 35.015-17.142l43.139 23.336 12.119 95.948c.621 4.91-2.855 9.395-7.763 10.015L78.253 388.481l-7.199.911a9.08 9.08 0 0 1-1.135.072Zm84.053-87.774-53.819 6.807.775 6.127 53.819-6.807-.775-6.127Zm26.678-21.337-82.73 10.463.774 6.128 82.73-10.464-.774-6.127Zm4.344-74.739-16.931-9.425c-3.531-26.602-26.244-46.001-52.419-46.001-2.212 0-4.454.139-6.706.424a52.887 52.887 0 0 0-15.12 4.247L31 119.891a8.923 8.923 0 0 1 5.633-3.008l9.486-1.2 30.406-3.845c31.906 16.367 83.299 43.98 103.564 54.942l4.906 38.834Zm-9.817-77.719-49.17-22.316 36.737-4.646a9.077 9.077 0 0 1 1.288-.07 8.96 8.96 0 0 1 8.721 7.837l2.424 19.195Z" fill="url(#ih)"/><path d="M72.171 307.912c-1.016-.254-2.243 1.796-2.168 2.396.076.599 3.828 3.95 4.104 4.179.276.231 2.982-.081 3.219-.409.237-.327.202-7.245 9.654-22.401.502-.805-8.566 4.512-11.987 19.055 0 0-2.066-2.631-2.822-2.82Z" fill="#6FCEC3"/><path d="m99.778 296.591-.778-6.27 83.221-10.706.779 6.269-83.222 10.707Z" fill="url(#ii)"/><path d="m100.781 314.567-.781-6.15 54.219-6.832.781 6.149-54.219 6.833Z" fill="url(#ij)"/><path d="M164.609 204.743c3.696 29.191-19.3 52.782-48.542 56.47-29.241 3.69-55.941-16.983-59.637-46.174-3.696-29.19 16.841-57.2 46.082-60.889s58.401 21.402 62.097 50.593Z" fill="#B5571F"/><path d="M168.576 197.083c3.67 28.998-16.894 55.475-45.931 59.14-29.036 3.665-55.551-16.87-59.221-45.868-3.67-28.997 16.893-55.474 45.93-59.139 29.038-3.665 55.552 16.87 59.222 45.867Z" fill="#F79722"/><path d="m155 187.741-8.264-4.54a40.207 40.207 0 0 0-7.055-8.424c-.457-.412-.969-.587-1.468-.587-1.56 0-2.986 1.704-2.155 3.145L109 162.473a42.14 42.14 0 0 1 7.62-.696c17.105 0 32.311 10.502 38.38 25.964Z" fill="#F9D632"/><path d="M116.535 256.647h-.007.007Zm.001 0Zm6.838-.426.018-.002-.018.002Zm.048-.006Zm.05-.006Zm.048-.007Zm.065-.008.003-.001-.003.001Zm.047-.005Zm.05-.007.015-.002-.015.002Zm.046-.006.019-.003-.019.003Zm.054-.007a.05.05 0 0 1 .013-.002l-.013.002Zm.11-.015.009-.001a.03.03 0 0 0-.009.001Zm.049-.007.012-.002a.05.05 0 0 1-.012.002Zm.053-.006.006-.001-.006.001ZM63.48 211.322Zm-.053-.393-.008-.057.008.057Zm-.032-.244-.001-.009.001.009Zm-.01-.074a.28.28 0 0 1-.001-.015c0 .003 0 .012.002.015Zm-.01-.078c0-.005 0-.009-.002-.016l.003.016Zm-.009-.077-.002-.019.002.019Zm-.01-.076c0-.008 0-.013-.002-.021l.003.021Zm-.008-.072a.45.45 0 0 0-.003-.023l.003.023Zm-.009-.075-.002-.022.002.022Zm-.009-.078-.003-.024.003.024Zm-.009-.077-.003-.028.003.028Zm-.01-.079-.002-.028a.648.648 0 0 1 .003.028Zm-.007-.066a2.997 2.997 0 0 1-.005-.043l.005.043Zm-.008-.077-.005-.041.005.041Zm-.009-.078-.004-.039.004.039Zm-.009-.078c0-.012-.002-.024-.003-.034l.003.034Zm-.008-.08-.004-.035.004.035Zm-.007-.067-.005-.047.005.047Zm-.008-.073-.006-.058.006.058Zm-.008-.078-.006-.059.006.059Zm-.008-.081a1.691 1.691 0 0 1-.005-.05l.005.05Zm-.008-.08-.004-.037.004.037Zm-.006-.062-.006-.057.006.057Zm-.008-.075-.006-.062.006.062Zm-.008-.082-.005-.06.005.06Zm-.007-.08-.006-.065.006.065Zm-.008-.08-.01-.122.01.122Zm-.011-.126Zm-.008-.088-.006-.07.006.07Zm-.007-.083-.006-.069.006.069Zm-.007-.081a13.044 13.044 0 0 1-.01-.122l.01.122Zm-.01-.124a5.12 5.12 0 0 0-.007-.078l.006.078Zm-.008-.093-.006-.066.006.066Zm-.007-.081-.005-.069.005.069Zm-.006-.08a4.357 4.357 0 0 0-.006-.072l.006.072Zm-.006-.081-.015-.204.015.204Zm-.016-.214-.005-.071.005.071Zm-.006-.084-.005-.065.005.065Zm-.006-.082a3.011 3.011 0 0 1-.004-.067l.004.067Zm-.005-.08-.008-.12.008.12Zm-.009-.135a3.544 3.544 0 0 1-.004-.065l.004.065Zm-.005-.084-.004-.059.004.059Zm-.005-.082-.004-.057.004.057Zm-.005-.079-.003-.053.003.053Zm-.005-.082-.002-.034.002.034Zm-.005-.08-.002-.033.002.033Zm-.003-.065-.003-.048.003.048Zm-.004-.075-.003-.049.003.049Zm-.005-.081-.002-.042.002.042Zm-.004-.077-.001-.034c0 .013 0 .022.002.034Zm-.003-.082-.002-.028.002.028Zm-.004-.079-.002-.026.002.026Zm-.004-.08-.001-.019v.019Zm-.003-.07-.002-.023.002.023Zm-.004-.079v-.015.015Zm-.003-.076v-.018.018Zm-.003-.078-.001-.016v.016Zm-.003-.079v-.013.013Zm-.004-.079v-.004.004Zm-.002-.074v-.005.005Zm-.003-.076v-.004.004Zm-.002-.077v-.004.004ZM63 205.72v-.003.003Z" fill="#B74E1E"/><path d="M116.049 256.647h-.007c-26.172-.003-48.898-19.29-52.541-45.764l-.012-.083a48.21 48.21 0 0 1-.042-.314l-.007-.058-.015-.117a13.575 13.575 0 0 1-.009-.071l-.001-.01-.008-.065-.002-.015-.008-.063-.002-.017a3.272 3.272 0 0 0-.008-.062l-.002-.019-.007-.058-.002-.021-.006-.051-.003-.023a1.767 1.767 0 0 0-.006-.052l-.003-.023a3.68 3.68 0 0 1-.006-.057l-.003-.023-.006-.054-.004-.029-.006-.051-.003-.029c0-.013-.002-.025-.004-.037l-.005-.044-.003-.035-.005-.041-.004-.037a1.357 1.357 0 0 0-.008-.079l-.004-.035a1.796 1.796 0 0 1-.005-.046l-.004-.035-.003-.033-.005-.047-.002-.026-.007-.058c0-.009 0-.013-.002-.021l-.005-.06-.003-.021-.005-.051a.763.763 0 0 0-.003-.03l-.003-.038-.003-.025-.005-.057-.002-.019-.006-.062a.338.338 0 0 1-.002-.02l-.006-.062a.242.242 0 0 0-.002-.019l-.005-.066-.002-.015-.01-.123-.001-.004a5.126 5.126 0 0 1-.007-.078v-.012l-.007-.07v-.013l-.007-.07v-.012l-.011-.123v-.002l-.007-.079v-.015c-.003-.022-.004-.044-.006-.067l-.001-.015-.005-.069-.002-.011-.005-.073v-.009l-.015-.206-.001-.01a4.694 4.694 0 0 0-.006-.085l-.005-.066v-.017l-.005-.068-.001-.013-.008-.121v-.015l-.005-.066-.001-.018a2.698 2.698 0 0 0-.004-.061l-.001-.023a10.891 10.891 0 0 0-.004-.057v-.023a2.772 2.772 0 0 1-.004-.053l-.002-.029-.002-.035-.002-.046-.002-.034a.856.856 0 0 1-.002-.032l-.003-.048-.001-.028c0-.018-.002-.031-.003-.049l-.001-.032-.003-.043a1.592 1.592 0 0 0-.003-.069l-.002-.048-.002-.029-.002-.052-.001-.025-.003-.055v-.02l-.003-.051-.001-.023-.002-.056-.001-.016-.002-.061-.001-.018-.002-.062-.001-.016-.003-.063v-.013a5 5 0 0 1-.003-.067v-.004l-.002-.07v-.005l-.003-.073v-.004l-.002-.073v-.004l-.003-.073v-.003a52.636 52.636 0 0 1 .304-7.495l11.587 6.246c.014 1.602.12 3.218.328 4.847 2.63 20.767 20.368 35.943 40.82 35.943 1.722 0 3.466-.108 5.218-.329a41.105 41.105 0 0 0 17.148-6.214L150 244.46a52.88 52.88 0 0 1-26.557 11.675l-.006.001-.041.005-.012.002-.039.005a.03.03 0 0 0-.009.001l-.097.013a.05.05 0 0 0-.012.002l-.034.004-.019.003-.031.004-.015.002-.034.005a.077.077 0 0 0-.015.002l-.044.005-.003.001-.047.006a.11.11 0 0 1-.018.002.57.57 0 0 0-.047.007.329.329 0 0 0-.031.004.308.308 0 0 0-.049.006l-.017.002-.047.006c-2.26.285-4.507.424-6.726.424h-.001Z" fill="#F68623"/><path d="M116.463 243.664c-20.608 0-38.481-15.233-41.132-36.078a41.289 41.289 0 0 1-.331-4.865l25.774 13.844-.345.043.886 6.957 4.83-.606.945 7.426 7.002-.879-.79-6.212L139 237.097a41.521 41.521 0 0 1-17.279 6.237c-1.766.222-3.523.33-5.258.33Z" fill="#FABB29"/><path d="m106.338 230.682-.9-7.512-4.596.613-.842-7.038.328-.043 11.92 6.806.752 6.284-6.662.89Z" fill="#F57E21"/><path d="M100.716 158.781 94 154.607a44.942 44.942 0 0 1 7-2.816 87.547 87.547 0 0 0-.284 6.99Z" fill="#F68623"/><path d="M148.286 170.765c-.342 0-.712-.1-1.088-.324-1.432-.861-2.496-2.287-3.656-3.462-1.287-1.3-.057-3.205 1.345-3.205.406 0 .827.161 1.205.543l3.267 3.304c1.338 1.354.387 3.144-1.073 3.144Z" fill="#F9AA20"/><path d="m146 183.747-10.753-5.851c-.838-1.438.599-3.137 2.17-3.137.502 0 1.018.174 1.478.586a40.168 40.168 0 0 1 7.105 8.402Z" fill="#FAE750"/><path d="M181 165.772c-20.35-10.911-71.96-38.396-104-54.687l49.691-6.229 49.377 22.212L181 165.772Z" fill="url(#ik)"/><path d="m193 266.633-43-23.21a51.23 51.23 0 0 0 1.951-2.144c12.003-11.157 18.642-27.723 16.429-45.208l-.045-.341 16.877 9.374 6.501 51.358L193 266.633Z" fill="url(#il)"/><path d="m150.269 243.664-.269-.153a47.088 47.088 0 0 0 2-1.844 46.877 46.877 0 0 1-1.731 1.997Z" fill="#A96D2A"/><path d="m149.938 243.664-.006-.003a53.18 53.18 0 0 0 12.505-15.183c-4.301-.305-8.539-.931-12.674-1.965a41.015 41.015 0 0 0 7.098-28.724 41.25 41.25 0 0 0-2.441-9.716l14.114 7.886.045.342c2.208 17.55-4.416 34.177-16.391 45.376-.73.683-1.48 1.346-2.25 1.987ZM102.2 164.432a77.79 77.79 0 0 1-.2-5.651l6.837 3.821a40.606 40.606 0 0 0-6.637 1.83Z" fill="#F9AB29"/><path d="M150.438 226.688c-6.269-1.54-12.304-3.983-17.958-7.62a11.62 11.62 0 0 0 2.178-1.65c1.765-1.704 3.737-4.771 3.105-9.697-.422-3.294-1.848-5.991-4.121-7.808 1.704-2.259 2.456-5.186 2.025-8.547-.63-4.926-3.313-7.413-5.452-8.63-2.193-1.246-4.535-1.608-6.521-1.608-.462 0-.904.02-1.321.052l-.471-3.677-4.385.547.468 3.656-2.423.302-.468-3.655-4.385.546.468 3.655-3.243.405-.736-5.737-3.129.39A77.286 77.286 0 0 1 102 164.606a41.953 41.953 0 0 1 6.759-1.83l27.306 14.982c.114.195.267.386.468.567 5.326 4.816 9.103 11.024 10.88 17.934.285 1.104 1.146 1.583 2.034 1.583 1.342 0 2.746-1.092 2.315-2.766a40.361 40.361 0 0 0-4.92-11.405l8.34 4.576a40.684 40.684 0 0 1 2.485 9.716c1.352 10.546-1.484 20.662-7.229 28.725Zm1.26-24.698c-.476 0-.966.133-1.386.396-1.865 1.175-.689 4.272-.918 6.072-.177 1.387 1.01 2.139 2.211 2.139 1.142 0 2.295-.68 2.299-2.14.21-1.643.1-3.286-.201-4.914-.191-1.042-1.072-1.553-2.005-1.553Zm-25.892 12.054-.358-.315a66.042 66.042 0 0 1-7.811-8.25l7.057-.88c.324-.041.636-.1.95-.156.122-.004.247-.007.374-.007 1.105 0 2.291.198 3.153.877 1.063.837 1.444 2.247 1.576 3.283.324 2.524-.7 3.512-1.036 3.838-.857.826-2.242 1.397-3.905 1.61Zm-12.781-15.103a72.243 72.243 0 0 1-3.981-7.316l-.224-1.746 13.633-1.699a9.876 9.876 0 0 1 1.229-.079c1.177 0 2.215.232 2.998.678.407.231 1.648.937 1.972 3.462.384 3.001-.928 4.69-4.069 5.296-.263.022-.512.027-.787.061l-10.771 1.343Z" fill="#F9DF42"/><path d="M131.726 218.699a55.983 55.983 0 0 1-6.513-5.036c1.623-.214 2.975-.786 3.811-1.614.328-.326 1.327-1.317 1.011-3.847-.129-1.038-.501-2.451-1.538-3.29-.841-.68-1.998-.879-3.077-.879a10.9 10.9 0 0 0-.365.007c-.306.056-.61.116-.927.156l-6.887.882a69.48 69.48 0 0 1-4.501-6.553l10.512-1.345c.268-.035.511-.04.768-.062 3.065-.607 4.345-2.3 3.971-5.308-.316-2.531-1.527-3.238-1.925-3.47-.764-.447-1.777-.68-2.925-.68a9.42 9.42 0 0 0-1.2.08l-13.304 1.703.218 1.75A77.083 77.083 0 0 1 104 177.148l3.054-.391.718 5.75 3.164-.406-.456-3.663 4.279-.548.457 3.663 2.364-.302-.456-3.664 4.279-.548.46 3.685c.407-.033.838-.052 1.289-.052 1.938 0 4.224.362 6.364 1.612 2.087 1.22 4.706 3.712 5.321 8.649.421 3.369-.314 6.302-1.977 8.566 2.219 1.822 3.611 4.525 4.022 7.826.617 4.938-1.307 8.012-3.03 9.72a11.416 11.416 0 0 1-2.126 1.654Z" fill="#F8A023"/><path d="m57.233 193.733-21.127-11.548-7.034-56.27a9.1 9.1 0 0 1 2.128-7.079L94 154.16a52.325 52.325 0 0 0-7.856 4.43c-14.176 6.75-24.722 19.837-28.91 35.143Z" fill="url(#im)"/><path d="M62.928 196.729 57 193.535c4.201-15.136 14.78-28.078 29-34.754-12.713 8.565-21.324 22.398-23.072 37.948Z" fill="#A96D2A"/><path d="M63 196.729v-.001c1.75-15.408 10.372-29.114 23.1-37.601a53.025 53.025 0 0 1 7.89-4.34l.01.006c-17 7.547-28.908 23.522-31 41.936Z" fill="#F9AB29"/><path d="m149.424 243.664-11.537-6.223a41.153 41.153 0 0 0 11.366-10.91c4.159 1.033 8.421 1.658 12.747 1.964a53.228 53.228 0 0 1-12.576 15.169Zm-74.87-40.388L63 197.045c2.084-18.555 13.946-34.653 30.882-42.258l7.335 4.071a77.653 77.653 0 0 0 .201 5.646c-16.073 5.9-27.015 21.381-26.865 38.772Z" fill="#F89A26"/><path d="m138.588 237.673-25.532-13.711-.154-1.207 3.216-.403.401 3.149 4.348-.545-.401-3.15 2.402-.303.401 3.151 4.348-.546-.404-3.17c1.501-.259 3.29-.772 4.981-1.778 5.607 3.631 11.59 6.071 17.806 7.608a41.227 41.227 0 0 1-11.412 10.905Zm-37.979-20.395-25.608-13.752c-.15-17.383 10.835-32.856 26.973-38.753a77.743 77.743 0 0 0 2.051 12.988l-3.854.484.729 5.729-4.8.602.88 6.911 4.799-.602 3.287 25.833-4.457.56Zm11.414-1.433-1.199-9.421 6.654-.835a65.697 65.697 0 0 0 7.745 8.239l.354.315-.037.004-13.517 1.698Zm-2.088-16.412-.977-7.678a72.19 72.19 0 0 0 3.947 7.305l-2.97.373Z" fill="#FCCA38"/><path d="m116.365 224.691-.399-3.163-3.208.406.154 1.211-12.415-6.711 4.445-.562-3.278-25.938-4.787.604-.877-6.939 4.787-.604-.727-5.753 3.844-.485a76.473 76.473 0 0 0 4.92 14.05l.974 7.71 2.963-.375a69.373 69.373 0 0 0 4.561 6.556l-6.637.838 1.196 9.459 13.482-1.704a.413.413 0 0 0 .037-.005 56.559 56.559 0 0 0 6.6 5.038c-1.687 1.01-3.471 1.525-4.968 1.785l.402 3.183-4.336.548-.4-3.163-2.396.303.4 3.163-4.337.548Z" fill="#F79323"/><path d="M149.571 197.728c-.9 0-1.774-.476-2.062-1.574-1.803-6.872-5.633-13.046-11.035-17.835a2.317 2.317 0 0 1-.474-.564l10.929 5.88a39.755 39.755 0 0 1 4.991 11.343c.437 1.664-.988 2.75-2.349 2.75ZM150.48 210.71c-1.257 0-2.499-.698-2.315-1.985.241-1.671-.991-4.546.961-5.636.44-.244.953-.368 1.452-.368.976 0 1.898.474 2.098 1.441.315 1.512.43 3.037.211 4.562-.004 1.354-1.212 1.986-2.407 1.986Z" fill="#F9ED62"/><path d="M165.056 90.167c-.654 0-1.313.04-1.977.124L36.012 106.287c-8.58 1.08-14.677 8.911-13.593 17.456l33.977 267.745a15.499 15.499 0 0 0 5.947 10.383 15.613 15.613 0 0 0 11.578 3.155l127.066-15.996a15.602 15.602 0 0 0 10.426-5.925 15.469 15.469 0 0 0 3.166-11.532l-33.976-267.744c-1-7.882-7.769-13.662-15.547-13.662ZM71.92 406.44a16.892 16.892 0 0 1-10.37-3.55 16.786 16.786 0 0 1-6.438-11.242L21.135 123.904c-1.173-9.25 5.428-17.726 14.714-18.896l127.066-15.996c9.285-1.168 17.798 5.406 18.973 14.655l33.975 267.746a16.75 16.75 0 0 1-3.428 12.483 16.872 16.872 0 0 1-11.285 6.412l-.082-.64.082.64-127.067 15.996c-.724.09-1.446.136-2.163.136Z" fill="#F5FBF1"/><defs><linearGradient id="ia" x1="294.999" y1="372.487" x2="374.999" y2="372.487" gradientUnits="userSpaceOnUse"><stop stop-color="#7331C6"/><stop offset=".943" stop-color="#E62EDE"/></linearGradient><linearGradient id="ib" x1="85" y1="37.947" x2="165" y2="37.947" gradientUnits="userSpaceOnUse"><stop stop-color="#D63AA5"/><stop offset=".998" stop-color="#D792CF"/><stop offset="1" stop-color="#D792CF"/></linearGradient><linearGradient id="ic" x1="372.205" y1="-17.928" x2="311.529" y2="287.76" gradientUnits="userSpaceOnUse"><stop stop-color="#FFA5E3"/><stop offset="1" stop-color="#2B1567"/></linearGradient><linearGradient id="id" x1="371.306" y1="-11.129" x2="313.876" y2="286.612" gradientUnits="userSpaceOnUse"><stop stop-color="#D05AB4"/><stop offset="1" stop-color="#8568BB"/></linearGradient><linearGradient id="ie" x1="372.05" y1="-20.968" x2="309.982" y2="288.586" gradientUnits="userSpaceOnUse"><stop stop-color="#D05AB4"/><stop offset="1" stop-color="#8568BB"/></linearGradient><linearGradient id="if" x1="371.935" y1="-19.656" x2="309.663" y2="289.666" gradientUnits="userSpaceOnUse"><stop stop-color="#D94CAE"/><stop offset="1" stop-color="#655DB4"/></linearGradient><linearGradient id="ig" x1="371.774" y1="-18.769" x2="310.935" y2="287.19" gradientUnits="userSpaceOnUse"><stop stop-color="#D94CAE"/><stop offset="1" stop-color="#655DB4"/></linearGradient><linearGradient id="ih" x1="136.42" y1="413.911" x2="96.91" y2="72.805" gradientUnits="userSpaceOnUse"><stop stop-color="#4641A1"/><stop offset=".001" stop-color="#4641A1"/><stop offset=".997" stop-color="#62CDF5"/><stop offset="1" stop-color="#62CDF5"/></linearGradient><linearGradient id="ii" x1="137.728" y1="416.278" x2="96.622" y2="67.402" gradientUnits="userSpaceOnUse"><stop stop-color="#5E4AA8"/><stop offset=".001" stop-color="#5E4AA8"/><stop offset=".997" stop-color="#7DD5F3"/><stop offset="1" stop-color="#7DD5F3"/></linearGradient><linearGradient id="ij" x1="136.536" y1="414.218" x2="97.024" y2="71.826" gradientUnits="userSpaceOnUse"><stop stop-color="#5E4AA8"/><stop offset=".001" stop-color="#5E4AA8"/><stop offset=".997" stop-color="#7DD5F3"/><stop offset="1" stop-color="#7DD5F3"/></linearGradient><linearGradient id="ik" x1="137.147" y1="411.752" x2="98.159" y2="72.155" gradientUnits="userSpaceOnUse"><stop stop-color="#444BA7"/><stop offset=".001" stop-color="#444BA7"/><stop offset=".997" stop-color="#67CEEF"/><stop offset="1" stop-color="#67CEEF"/></linearGradient><linearGradient id="il" x1="136.793" y1="412.27" x2="97.582" y2="72.996" gradientUnits="userSpaceOnUse"><stop stop-color="#444BA7"/><stop offset=".001" stop-color="#444BA7"/><stop offset=".997" stop-color="#67CEEF"/><stop offset="1" stop-color="#67CEEF"/></linearGradient><linearGradient id="im" x1="136.59" y1="415.844" x2="96.272" y2="71.368" gradientUnits="userSpaceOnUse"><stop stop-color="#444BA7"/><stop offset=".001" stop-color="#444BA7"/><stop offset=".997" stop-color="#67CEEF"/><stop offset="1" stop-color="#67CEEF"/></linearGradient></defs></svg><svg fill="none" viewBox="0 0 24 32" id="security" xmlns="http://www.w3.org/2000/svg"><path d="M21 11h-1.5V8c0-4.14-3.36-7.5-7.5-7.5C7.86.5 4.5 3.86 4.5 8v3H3c-1.65 0-3 1.35-3 3v15c0 1.65 1.35 3 3 3h18c1.65 0 3-1.35 3-3V14c0-1.65-1.35-3-3-3Zm-9 13.5c-1.65 0-3-1.35-3-3s1.35-3 3-3 3 1.35 3 3-1.35 3-3 3ZM16.65 11h-9.3V8A4.654 4.654 0 0 1 12 3.35 4.654 4.654 0 0 1 16.65 8v3Z" fill="url(#ja)"/><defs><linearGradient id="ja" x1="-2.756" y1="37.478" x2="28.573" y2="36.394" gradientUnits="userSpaceOnUse"><stop stop-color="#2E00B1"/><stop offset=".484" stop-color="#8100BD"/><stop offset="1" stop-color="#A400BE"/></linearGradient></defs></svg><svg fill="none" viewBox="0 0 24 24" id="statistics" xmlns="http://www.w3.org/2000/svg"><path d="M9 24h6V0H9v24Zm-9 0h6V12H0v12ZM18 7.5V24h6V7.5h-6Z" fill="url(#ka)"/><defs><linearGradient id="ka" x1="-2.756" y1="28.174" x2="28.546" y2="26.752" gradientUnits="userSpaceOnUse"><stop stop-color="#2E00B1"/><stop offset=".484" stop-color="#8100BD"/><stop offset="1" stop-color="#A400BE"/></linearGradient></defs></svg></svg>